<svg width="370" height="321" viewBox="0 0 370 321" fill="none" xmlns="http://www.w3.org/2000/svg">
<path fill-rule="evenodd" clip-rule="evenodd" d="M184.971 0.608398L175.171 17.5611C174.952 17.9409 174.732 18.3204 174.513 18.7005L0 320.608H369.941L184.971 0.608398ZM123.502 152.317L39.4782 297.679C83.1804 296.634 122.482 291.55 151.822 276.777C161.178 272.066 169.442 266.406 176.497 259.608C157.835 246.868 144.393 232.206 135.643 215.81C125.148 196.146 121.847 174.823 123.459 152.892C123.473 152.7 123.487 152.509 123.502 152.317ZM160.319 297.904H330.296C307.145 259.935 282.053 226.745 253.877 206.965C245.246 200.906 236.428 196.181 227.37 192.956C225.82 216.912 219.881 236.974 209.996 253.585C198.358 273.145 181.71 287.147 162.033 297.055C161.464 297.342 160.893 297.625 160.319 297.904ZM267.547 188.835L185.102 46.2044C163.975 84.8908 148.523 121.746 146.112 154.542C145.524 162.54 145.719 170.23 146.781 177.61C167.036 168.163 186.497 164.326 205.181 165.442C227.826 166.795 248.365 175.366 266.929 188.398C267.135 188.543 267.341 188.689 267.547 188.835ZM155.687 205.124C154.748 203.364 153.879 201.581 153.08 199.776C171.69 190.485 188.509 187.18 203.837 188.096C204.19 188.117 204.543 188.14 204.895 188.166C203.889 210.655 198.685 228.098 190.62 241.748C173.765 230.504 162.629 218.132 155.687 205.124Z" fill="#1F267B"/>
</svg>
