<svg width="868" height="169" viewBox="0 0 868 169" fill="none" xmlns="http://www.w3.org/2000/svg">
<path fill-rule="evenodd" clip-rule="evenodd" d="M92.7119 0.356934L87.8123 8.83328C87.7025 9.02319 87.5925 9.21295 87.483 9.40299L0.226562 160.357H185.197L92.7119 0.356934ZM61.9777 76.2114L19.9657 148.892C41.8168 148.37 61.4676 145.827 76.1376 138.441C80.8154 136.086 84.9473 133.256 88.475 129.857C79.1438 123.487 72.4232 116.156 68.0479 107.958C62.8008 98.1258 61.1499 87.464 61.956 76.4986C61.9631 76.4029 61.9703 76.3071 61.9777 76.2114ZM80.3859 149.005H165.375C153.799 130.02 141.253 113.425 127.165 103.535C122.849 100.506 118.441 98.1431 113.911 96.5309C113.137 108.509 110.167 118.54 105.225 126.845C99.4056 136.625 91.0817 143.626 81.2429 148.58C80.9586 148.724 80.6729 148.865 80.3859 149.005ZM134 94.4701L92.7778 23.1549C82.214 42.4981 74.4881 60.9259 73.2827 77.324C72.9887 81.3228 73.086 85.168 73.6173 88.8575C83.7448 84.1345 93.4751 82.2156 102.817 82.7737C114.14 83.4502 124.409 87.7357 133.691 94.2518C133.794 94.3243 133.897 94.397 134 94.4701ZM78.0701 102.615C77.6004 101.735 77.1661 100.843 76.7664 99.9406C86.0717 95.2951 94.4811 93.6427 102.145 94.1006C102.322 94.1111 102.498 94.1228 102.674 94.1356C102.171 105.38 99.5689 114.102 95.5367 120.926C87.1089 115.305 81.5412 109.119 78.0701 102.615Z" fill="#1F267B"/>
<path d="M399.755 39.8756C396.758 39.8756 394.245 38.8606 392.215 36.8306C390.185 34.8006 389.17 32.2872 389.17 29.2906C389.17 26.2939 390.185 23.7806 392.215 21.7506C394.245 19.7206 396.758 18.7056 399.755 18.7056C402.655 18.7056 405.12 19.7206 407.15 21.7506C409.18 23.7806 410.195 26.2939 410.195 29.2906C410.195 32.2872 409.18 34.8006 407.15 36.8306C405.12 38.8606 402.655 39.8756 399.755 39.8756ZM407.875 50.4606V130.356H391.345V50.4606H407.875Z" fill="#1F267B"/>
<path d="M312.504 62.2058C315.307 58.5324 319.125 55.4391 323.959 52.9258C328.792 50.4124 334.254 49.1558 340.344 49.1558C347.304 49.1558 353.635 50.8958 359.339 54.3758C365.139 57.7591 369.682 62.5441 372.969 68.7308C376.255 74.9174 377.899 82.0224 377.899 90.0458C377.899 98.0691 376.255 105.271 372.969 111.651C369.682 117.934 365.139 122.864 359.339 126.441C353.635 129.921 347.304 131.661 340.344 131.661C334.254 131.661 328.84 130.452 324.104 128.036C319.367 125.522 315.5 122.429 312.504 118.756V168.346H295.974V50.4608H312.504V62.2058ZM361.079 90.0458C361.079 84.5358 359.919 79.7991 357.599 75.8358C355.375 71.7758 352.379 68.7308 348.609 66.7008C344.935 64.5741 340.972 63.5108 336.719 63.5108C332.562 63.5108 328.599 64.5741 324.829 66.7008C321.155 68.8274 318.159 71.9208 315.839 75.9808C313.615 80.0408 312.504 84.8258 312.504 90.3358C312.504 95.8458 313.615 100.679 315.839 104.836C318.159 108.896 321.155 111.989 324.829 114.116C328.599 116.242 332.562 117.306 336.719 117.306C340.972 117.306 344.935 116.242 348.609 114.116C352.379 111.892 355.375 108.702 357.599 104.546C359.919 100.389 361.079 95.5558 361.079 90.0458Z" fill="#1F267B"/>
<path d="M195.092 90.0458C195.092 82.0224 196.735 74.9174 200.022 68.7308C203.405 62.5441 207.948 57.7591 213.652 54.3758C219.452 50.8958 225.832 49.1558 232.792 49.1558C239.075 49.1558 244.537 50.4124 249.177 52.9258C253.913 55.3424 257.683 58.3874 260.487 62.0608V50.4608H277.162V130.356H260.487V118.466C257.683 122.236 253.865 125.377 249.032 127.891C244.198 130.404 238.688 131.661 232.502 131.661C225.638 131.661 219.355 129.921 213.652 126.441C207.948 122.864 203.405 117.934 200.022 111.651C196.735 105.271 195.092 98.0691 195.092 90.0458ZM260.487 90.3358C260.487 84.8258 259.327 80.0408 257.007 75.9808C254.783 71.9208 251.835 68.8274 248.162 66.7008C244.488 64.5741 240.525 63.5108 236.272 63.5108C232.018 63.5108 228.055 64.5741 224.382 66.7008C220.708 68.7308 217.712 71.7758 215.392 75.8358C213.168 79.7991 212.057 84.5358 212.057 90.0458C212.057 95.5558 213.168 100.389 215.392 104.546C217.712 108.702 220.708 111.892 224.382 114.116C228.152 116.242 232.115 117.306 236.272 117.306C240.525 117.306 244.488 116.242 248.162 114.116C251.835 111.989 254.783 108.896 257.007 104.836C259.327 100.679 260.487 95.8458 260.487 90.3358Z" fill="#1F267B"/>
<path d="M427.677 50.7506C428.257 41.7606 431.688 34.7522 437.972 29.7256C444.352 24.6989 452.472 22.1855 462.332 22.1855C469.098 22.1855 474.947 23.3939 479.877 25.8106C484.807 28.2272 488.528 31.5139 491.042 35.6705C493.555 39.8272 494.812 44.5156 494.812 49.7355C494.812 55.7289 493.217 60.8522 490.027 65.1056C486.837 69.3589 483.018 72.2106 478.572 73.6606V74.2406C484.275 75.9806 488.722 79.1706 491.912 83.8106C495.102 88.3539 496.697 94.2022 496.697 101.356C496.697 107.059 495.392 112.134 492.782 116.581C490.172 121.027 486.305 124.556 481.182 127.166C476.058 129.679 469.92 130.936 462.767 130.936C452.327 130.936 443.723 128.277 436.957 122.961C430.287 117.547 426.71 109.814 426.227 99.7606H442.177C442.563 104.884 444.545 109.089 448.122 112.376C451.698 115.566 456.532 117.161 462.622 117.161C468.518 117.161 473.062 115.566 476.252 112.376C479.442 109.089 481.037 104.884 481.037 99.7606C481.037 92.9939 478.862 88.2089 474.512 85.4056C470.258 82.5056 463.685 81.0556 454.792 81.0556H451.022V67.4256H454.937C462.767 67.3289 468.712 66.0239 472.772 63.5106C476.928 60.9972 479.007 57.0339 479.007 51.6205C479.007 46.9806 477.508 43.3072 474.512 40.6006C471.515 37.7972 467.262 36.3956 461.752 36.3956C456.338 36.3956 452.133 37.7972 449.137 40.6006C446.14 43.3072 444.352 46.6906 443.772 50.7506H427.677Z" fill="#1F267B"/>
<path d="M826.424 132.158C820.141 132.158 814.486 131.046 809.459 128.823C804.529 126.503 800.614 123.41 797.714 119.543C794.814 115.58 793.268 111.181 793.074 106.348H810.184C810.474 109.731 812.069 112.583 814.969 114.903C817.966 117.126 821.688 118.238 826.134 118.238C830.774 118.238 834.351 117.368 836.864 115.628C839.474 113.791 840.779 111.471 840.779 108.668C840.779 105.671 839.329 103.448 836.429 101.998C833.626 100.548 829.131 98.953 822.944 97.213C816.951 95.5696 812.069 93.9746 808.299 92.428C804.529 90.8813 801.243 88.513 798.439 85.323C795.733 82.133 794.379 77.928 794.379 72.708C794.379 68.4546 795.636 64.588 798.149 61.108C800.663 57.5313 804.239 54.728 808.879 52.698C813.616 50.668 819.029 49.653 825.119 49.653C834.206 49.653 841.504 51.973 847.014 56.613C852.621 61.1563 855.618 67.3913 856.004 75.318H839.474C839.184 71.7413 837.734 68.8896 835.124 66.763C832.514 64.6363 828.986 63.573 824.539 63.573C820.189 63.573 816.854 64.3946 814.534 66.038C812.214 67.6813 811.054 69.8563 811.054 72.563C811.054 74.6896 811.828 76.478 813.374 77.928C814.921 79.378 816.806 80.538 819.029 81.408C821.253 82.1813 824.539 83.1963 828.889 84.453C834.689 85.9996 839.426 87.5946 843.099 89.238C846.869 90.7846 850.108 93.1046 852.814 96.198C855.521 99.2913 856.923 103.4 857.019 108.523C857.019 113.066 855.763 117.126 853.249 120.703C850.736 124.28 847.159 127.083 842.519 129.113C837.976 131.143 832.611 132.158 826.424 132.158Z" fill="#5D66C4"/>
<path d="M707.871 90.833C707.871 82.6163 709.514 75.4146 712.801 69.228C716.184 62.9446 720.824 58.1113 726.721 54.7279C732.618 51.3446 739.384 49.653 747.021 49.653C756.688 49.653 764.663 51.973 770.946 56.613C777.326 61.1563 781.628 67.6813 783.851 76.188H766.016C764.566 72.2246 762.246 69.1313 759.056 66.908C755.866 64.6846 751.854 63.573 747.021 63.573C740.254 63.573 734.841 65.9896 730.781 70.8229C726.818 75.5596 724.836 82.2296 724.836 90.833C724.836 99.4363 726.818 106.155 730.781 110.988C734.841 115.821 740.254 118.238 747.021 118.238C756.591 118.238 762.923 114.033 766.016 105.623H783.851C781.531 113.743 777.181 120.22 770.801 125.053C764.421 129.79 756.494 132.158 747.021 132.158C739.384 132.158 732.618 130.466 726.721 127.083C720.824 123.603 716.184 118.77 712.801 112.583C709.514 106.3 707.871 99.0496 707.871 90.833Z" fill="#5D66C4"/>
<path d="M658.47 132.158C650.93 132.158 644.115 130.466 638.025 127.083C631.935 123.603 627.15 118.77 623.67 112.583C620.19 106.3 618.45 99.0496 618.45 90.833C618.45 82.713 620.239 75.5113 623.815 69.228C627.392 62.9446 632.274 58.1113 638.46 54.7279C644.647 51.3446 651.559 49.653 659.195 49.653C666.832 49.653 673.744 51.3446 679.93 54.7279C686.117 58.1113 690.999 62.9446 694.575 69.228C698.152 75.5113 699.94 82.713 699.94 90.833C699.94 98.953 698.104 106.155 694.43 112.438C690.757 118.721 685.73 123.603 679.35 127.083C673.067 130.466 666.107 132.158 658.47 132.158ZM658.47 117.803C662.724 117.803 666.687 116.788 670.36 114.758C674.13 112.728 677.175 109.683 679.495 105.623C681.815 101.563 682.975 96.633 682.975 90.833C682.975 85.033 681.864 80.1513 679.64 76.188C677.417 72.128 674.469 69.083 670.795 67.053C667.122 65.023 663.159 64.0079 658.905 64.0079C654.652 64.0079 650.689 65.023 647.015 67.053C643.439 69.083 640.587 72.128 638.46 76.188C636.334 80.1513 635.27 85.033 635.27 90.833C635.27 99.4363 637.445 106.106 641.795 110.843C646.242 115.483 651.8 117.803 658.47 117.803Z" fill="#5D66C4"/>
<path d="M522.934 90.543C522.934 82.5196 524.577 75.4146 527.864 69.228C531.247 63.0413 535.79 58.2563 541.494 54.873C547.294 51.393 553.722 49.653 560.779 49.653C565.999 49.653 571.122 50.813 576.149 53.133C581.272 55.3563 585.332 58.353 588.329 62.123V23.553H605.004V130.853H588.329V118.818C585.622 122.685 581.852 125.875 577.019 128.388C572.282 130.901 566.82 132.158 560.634 132.158C553.674 132.158 547.294 130.418 541.494 126.938C535.79 123.361 531.247 118.431 527.864 112.148C524.577 105.768 522.934 98.5663 522.934 90.543ZM588.329 90.833C588.329 85.323 587.169 80.538 584.849 76.478C582.625 72.418 579.677 69.3246 576.004 67.198C572.33 65.0713 568.367 64.008 564.114 64.008C559.86 64.008 555.897 65.0713 552.224 67.198C548.55 69.228 545.554 72.273 543.234 76.333C541.01 80.2963 539.899 85.033 539.899 90.543C539.899 96.053 541.01 100.886 543.234 105.043C545.554 109.2 548.55 112.39 552.224 114.613C555.994 116.74 559.957 117.803 564.114 117.803C568.367 117.803 572.33 116.74 576.004 114.613C579.677 112.486 582.625 109.393 584.849 105.333C587.169 101.176 588.329 96.343 588.329 90.833Z" fill="#5D66C4"/>
</svg>
