<svg width="370" height="321" viewBox="0 0 370 321" fill="none" xmlns="http://www.w3.org/2000/svg">
<path fill-rule="evenodd" clip-rule="evenodd" d="M184.971 0.858398L175.171 17.8111C174.952 18.1909 174.732 18.5704 174.513 18.9505L0 320.858H369.941L184.971 0.858398ZM123.502 152.567L39.4782 297.929C83.1804 296.884 122.482 291.8 151.822 277.027C161.178 272.316 169.442 266.656 176.497 259.858C157.835 247.118 144.393 232.456 135.643 216.06C125.148 196.396 121.847 175.073 123.459 153.142C123.473 152.95 123.487 152.759 123.502 152.567ZM160.319 298.154H330.296C307.145 260.185 282.053 226.995 253.877 207.215C245.246 201.156 236.428 196.431 227.37 193.206C225.82 217.162 219.881 237.224 209.996 253.835C198.358 273.395 181.71 287.397 162.033 297.305C161.464 297.592 160.893 297.875 160.319 298.154ZM267.547 189.085L185.102 46.4544C163.975 85.1408 148.523 121.996 146.112 154.792C145.524 162.79 145.719 170.48 146.781 177.86C167.036 168.413 186.497 164.576 205.181 165.692C227.826 167.045 248.365 175.616 266.929 188.648C267.135 188.793 267.341 188.939 267.547 189.085ZM155.687 205.374C154.748 203.614 153.879 201.831 153.08 200.026C171.69 190.735 188.509 187.43 203.837 188.346C204.19 188.367 204.543 188.39 204.895 188.416C203.889 210.905 198.685 228.348 190.62 241.998C173.765 230.754 162.629 218.382 155.687 205.374Z" fill="#F3F3F3"/>
</svg>
