<svg width="868" height="169" viewBox="0 0 868 169" fill="none" xmlns="http://www.w3.org/2000/svg">
<path fill-rule="evenodd" clip-rule="evenodd" d="M93.2119 0.356934L88.3123 8.83328C88.2025 9.02319 88.0925 9.21295 87.983 9.40299L0.726562 160.357H185.697L93.2119 0.356934ZM62.4777 76.2114L20.4657 148.892C42.3168 148.37 61.9676 145.827 76.6376 138.441C81.3154 136.086 85.4473 133.256 88.975 129.857C79.6438 123.487 72.9232 116.156 68.5479 107.958C63.3008 98.1258 61.6499 87.464 62.456 76.4986C62.4631 76.4029 62.4703 76.3071 62.4777 76.2114ZM80.8859 149.005H165.875C154.299 130.02 141.753 113.425 127.665 103.535C123.349 100.506 118.941 98.1431 114.411 96.5309C113.637 108.509 110.667 118.54 105.725 126.845C99.9056 136.625 91.5817 143.626 81.7429 148.58C81.4586 148.724 81.1729 148.865 80.8859 149.005ZM134.5 94.4701L93.2778 23.1549C82.714 42.4981 74.9881 60.9259 73.7827 77.324C73.4887 81.3228 73.586 85.168 74.1173 88.8575C84.2448 84.1345 93.9751 82.2156 103.317 82.7737C114.64 83.4502 124.909 87.7357 134.191 94.2518C134.294 94.3243 134.397 94.397 134.5 94.4701ZM78.5701 102.615C78.1004 101.735 77.6661 100.843 77.2664 99.9406C86.5717 95.2951 94.9811 93.6427 102.645 94.1006C102.822 94.1111 102.998 94.1228 103.174 94.1356C102.671 105.38 100.069 114.102 96.0367 120.926C87.6089 115.305 82.0412 109.119 78.5701 102.615Z" fill="#FAFAFA"/>
<path d="M400.255 39.8756C397.258 39.8756 394.745 38.8606 392.715 36.8306C390.685 34.8006 389.67 32.2872 389.67 29.2906C389.67 26.2939 390.685 23.7806 392.715 21.7506C394.745 19.7206 397.258 18.7056 400.255 18.7056C403.155 18.7056 405.62 19.7206 407.65 21.7506C409.68 23.7806 410.695 26.2939 410.695 29.2906C410.695 32.2872 409.68 34.8006 407.65 36.8306C405.62 38.8606 403.155 39.8756 400.255 39.8756ZM408.375 50.4606V130.356H391.845V50.4606H408.375Z" fill="#FAFAFA"/>
<path d="M313.004 62.2058C315.807 58.5324 319.625 55.4391 324.459 52.9258C329.292 50.4124 334.754 49.1558 340.844 49.1558C347.804 49.1558 354.135 50.8958 359.839 54.3758C365.639 57.7591 370.182 62.5441 373.469 68.7308C376.755 74.9174 378.399 82.0224 378.399 90.0458C378.399 98.0691 376.755 105.271 373.469 111.651C370.182 117.934 365.639 122.864 359.839 126.441C354.135 129.921 347.804 131.661 340.844 131.661C334.754 131.661 329.34 130.452 324.604 128.036C319.867 125.522 316 122.429 313.004 118.756V168.346H296.474V50.4608H313.004V62.2058ZM361.579 90.0458C361.579 84.5358 360.419 79.7991 358.099 75.8358C355.875 71.7758 352.879 68.7308 349.109 66.7008C345.435 64.5741 341.472 63.5108 337.219 63.5108C333.062 63.5108 329.099 64.5741 325.329 66.7008C321.655 68.8274 318.659 71.9208 316.339 75.9808C314.115 80.0408 313.004 84.8258 313.004 90.3358C313.004 95.8458 314.115 100.679 316.339 104.836C318.659 108.896 321.655 111.989 325.329 114.116C329.099 116.242 333.062 117.306 337.219 117.306C341.472 117.306 345.435 116.242 349.109 114.116C352.879 111.892 355.875 108.702 358.099 104.546C360.419 100.389 361.579 95.5558 361.579 90.0458Z" fill="#FAFAFA"/>
<path d="M195.592 90.0458C195.592 82.0224 197.235 74.9174 200.522 68.7308C203.905 62.5441 208.448 57.7591 214.152 54.3758C219.952 50.8958 226.332 49.1558 233.292 49.1558C239.575 49.1558 245.037 50.4124 249.677 52.9258C254.413 55.3424 258.183 58.3874 260.987 62.0608V50.4608H277.662V130.356H260.987V118.466C258.183 122.236 254.365 125.377 249.532 127.891C244.698 130.404 239.188 131.661 233.002 131.661C226.138 131.661 219.855 129.921 214.152 126.441C208.448 122.864 203.905 117.934 200.522 111.651C197.235 105.271 195.592 98.0691 195.592 90.0458ZM260.987 90.3358C260.987 84.8258 259.827 80.0408 257.507 75.9808C255.283 71.9208 252.335 68.8274 248.662 66.7008C244.988 64.5741 241.025 63.5108 236.772 63.5108C232.518 63.5108 228.555 64.5741 224.882 66.7008C221.208 68.7308 218.212 71.7758 215.892 75.8358C213.668 79.7991 212.557 84.5358 212.557 90.0458C212.557 95.5558 213.668 100.389 215.892 104.546C218.212 108.702 221.208 111.892 224.882 114.116C228.652 116.242 232.615 117.306 236.772 117.306C241.025 117.306 244.988 116.242 248.662 114.116C252.335 111.989 255.283 108.896 257.507 104.836C259.827 100.679 260.987 95.8458 260.987 90.3358Z" fill="#FAFAFA"/>
<path d="M428.177 50.7506C428.757 41.7606 432.188 34.7522 438.472 29.7256C444.852 24.6989 452.972 22.1855 462.832 22.1855C469.598 22.1855 475.447 23.3939 480.377 25.8106C485.307 28.2272 489.028 31.5139 491.542 35.6705C494.055 39.8272 495.312 44.5156 495.312 49.7355C495.312 55.7289 493.717 60.8522 490.527 65.1056C487.337 69.3589 483.518 72.2106 479.072 73.6606V74.2406C484.775 75.9806 489.222 79.1706 492.412 83.8106C495.602 88.3539 497.197 94.2022 497.197 101.356C497.197 107.059 495.892 112.134 493.282 116.581C490.672 121.027 486.805 124.556 481.682 127.166C476.558 129.679 470.42 130.936 463.267 130.936C452.827 130.936 444.223 128.277 437.457 122.961C430.787 117.547 427.21 109.814 426.727 99.7606H442.677C443.063 104.884 445.045 109.089 448.622 112.376C452.198 115.566 457.032 117.161 463.122 117.161C469.018 117.161 473.562 115.566 476.752 112.376C479.942 109.089 481.537 104.884 481.537 99.7606C481.537 92.9939 479.362 88.2089 475.012 85.4056C470.758 82.5056 464.185 81.0556 455.292 81.0556H451.522V67.4256H455.437C463.267 67.3289 469.212 66.0239 473.272 63.5106C477.428 60.9972 479.507 57.0339 479.507 51.6205C479.507 46.9806 478.008 43.3072 475.012 40.6006C472.015 37.7972 467.762 36.3956 462.252 36.3956C456.838 36.3956 452.633 37.7972 449.637 40.6006C446.64 43.3072 444.852 46.6906 444.272 50.7506H428.177Z" fill="#FAFAFA"/>
<path d="M826.924 132.158C820.641 132.158 814.986 131.046 809.959 128.823C805.029 126.503 801.114 123.41 798.214 119.543C795.314 115.58 793.768 111.181 793.574 106.348H810.684C810.974 109.731 812.569 112.583 815.469 114.903C818.466 117.126 822.188 118.238 826.634 118.238C831.274 118.238 834.851 117.368 837.364 115.628C839.974 113.791 841.279 111.471 841.279 108.668C841.279 105.671 839.829 103.448 836.929 101.998C834.126 100.548 829.631 98.953 823.444 97.213C817.451 95.5696 812.569 93.9746 808.799 92.428C805.029 90.8813 801.743 88.513 798.939 85.323C796.233 82.133 794.879 77.928 794.879 72.708C794.879 68.4546 796.136 64.588 798.649 61.108C801.163 57.5313 804.739 54.728 809.379 52.698C814.116 50.668 819.529 49.653 825.619 49.653C834.706 49.653 842.004 51.973 847.514 56.613C853.121 61.1563 856.118 67.3913 856.504 75.318H839.974C839.684 71.7413 838.234 68.8896 835.624 66.763C833.014 64.6363 829.486 63.573 825.039 63.573C820.689 63.573 817.354 64.3946 815.034 66.038C812.714 67.6813 811.554 69.8563 811.554 72.563C811.554 74.6896 812.328 76.478 813.874 77.928C815.421 79.378 817.306 80.538 819.529 81.408C821.753 82.1813 825.039 83.1963 829.389 84.453C835.189 85.9996 839.926 87.5946 843.599 89.238C847.369 90.7846 850.608 93.1046 853.314 96.198C856.021 99.2913 857.423 103.4 857.519 108.523C857.519 113.066 856.263 117.126 853.749 120.703C851.236 124.28 847.659 127.083 843.019 129.113C838.476 131.143 833.111 132.158 826.924 132.158Z" fill="#99A0E4"/>
<path d="M708.371 90.833C708.371 82.6163 710.014 75.4146 713.301 69.228C716.684 62.9446 721.324 58.1113 727.221 54.7279C733.118 51.3446 739.884 49.653 747.521 49.653C757.188 49.653 765.163 51.973 771.446 56.613C777.826 61.1563 782.128 67.6813 784.351 76.188H766.516C765.066 72.2246 762.746 69.1313 759.556 66.908C756.366 64.6846 752.354 63.573 747.521 63.573C740.754 63.573 735.341 65.9896 731.281 70.8229C727.318 75.5596 725.336 82.2296 725.336 90.833C725.336 99.4363 727.318 106.155 731.281 110.988C735.341 115.821 740.754 118.238 747.521 118.238C757.091 118.238 763.423 114.033 766.516 105.623H784.351C782.031 113.743 777.681 120.22 771.301 125.053C764.921 129.79 756.994 132.158 747.521 132.158C739.884 132.158 733.118 130.466 727.221 127.083C721.324 123.603 716.684 118.77 713.301 112.583C710.014 106.3 708.371 99.0496 708.371 90.833Z" fill="#99A0E4"/>
<path d="M658.97 132.158C651.43 132.158 644.615 130.466 638.525 127.083C632.435 123.603 627.65 118.77 624.17 112.583C620.69 106.3 618.95 99.0496 618.95 90.833C618.95 82.713 620.739 75.5113 624.315 69.228C627.892 62.9446 632.774 58.1113 638.96 54.7279C645.147 51.3446 652.059 49.653 659.695 49.653C667.332 49.653 674.244 51.3446 680.43 54.7279C686.617 58.1113 691.499 62.9446 695.075 69.228C698.652 75.5113 700.44 82.713 700.44 90.833C700.44 98.953 698.604 106.155 694.93 112.438C691.257 118.721 686.23 123.603 679.85 127.083C673.567 130.466 666.607 132.158 658.97 132.158ZM658.97 117.803C663.224 117.803 667.187 116.788 670.86 114.758C674.63 112.728 677.675 109.683 679.995 105.623C682.315 101.563 683.475 96.633 683.475 90.833C683.475 85.033 682.364 80.1513 680.14 76.188C677.917 72.128 674.969 69.083 671.295 67.053C667.622 65.023 663.659 64.0079 659.405 64.0079C655.152 64.0079 651.189 65.023 647.515 67.053C643.939 69.083 641.087 72.128 638.96 76.188C636.834 80.1513 635.77 85.033 635.77 90.833C635.77 99.4363 637.945 106.106 642.295 110.843C646.742 115.483 652.3 117.803 658.97 117.803Z" fill="#99A0E4"/>
<path d="M523.434 90.543C523.434 82.5196 525.077 75.4146 528.364 69.228C531.747 63.0413 536.29 58.2563 541.994 54.873C547.794 51.393 554.222 49.653 561.279 49.653C566.499 49.653 571.622 50.813 576.649 53.133C581.772 55.3563 585.832 58.353 588.829 62.123V23.553H605.504V130.853H588.829V118.818C586.122 122.685 582.352 125.875 577.519 128.388C572.782 130.901 567.32 132.158 561.134 132.158C554.174 132.158 547.794 130.418 541.994 126.938C536.29 123.361 531.747 118.431 528.364 112.148C525.077 105.768 523.434 98.5663 523.434 90.543ZM588.829 90.833C588.829 85.323 587.669 80.538 585.349 76.478C583.125 72.418 580.177 69.3246 576.504 67.198C572.83 65.0713 568.867 64.008 564.614 64.008C560.36 64.008 556.397 65.0713 552.724 67.198C549.05 69.228 546.054 72.273 543.734 76.333C541.51 80.2963 540.399 85.033 540.399 90.543C540.399 96.053 541.51 100.886 543.734 105.043C546.054 109.2 549.05 112.39 552.724 114.613C556.494 116.74 560.457 117.803 564.614 117.803C568.867 117.803 572.83 116.74 576.504 114.613C580.177 112.486 583.125 109.393 585.349 105.333C587.669 101.176 588.829 96.343 588.829 90.833Z" fill="#99A0E4"/>
</svg>
