<svg width="512" height="512" viewBox="0 0 512 512" fill="none" xmlns="http://www.w3.org/2000/svg">
<g clip-path="url(#clip0_8838_152386)">
<path opacity="0.9" d="M436.027 292.621V361.903L256.027 465.848L76.0273 361.903V292.621L256.219 188.264L436.027 292.621Z" fill="black"/>
<path d="M377.027 396.549H375.027V327.839L295.529 281.941L296.529 280.209L376.527 326.396C376.679 326.484 376.806 326.61 376.893 326.762C376.981 326.914 377.027 327.087 377.027 327.262V396.549Z" fill="url(#paint0_linear_8838_152386)"/>
<path d="M136.967 396.48H134.967V327.267C134.967 327.092 135.013 326.919 135.101 326.767C135.189 326.615 135.315 326.489 135.467 326.401L195.527 291.749L196.527 293.481L136.967 327.845V396.48Z" fill="url(#paint1_linear_8838_152386)"/>
<path d="M256.027 396.555V465.848L436.027 361.903V292.621L256.027 396.555Z" fill="url(#paint2_linear_8838_152386)"/>
<path d="M256.027 466.848C255.852 466.848 255.679 466.802 255.527 466.714L75.5273 362.769C75.3753 362.681 75.249 362.555 75.1613 362.403C75.0735 362.251 75.0273 362.078 75.0273 361.903V292.62C75.0273 292.445 75.0735 292.272 75.1613 292.12C75.249 291.968 75.3753 291.842 75.5273 291.754L195.527 222.467L255.716 187.399C255.869 187.311 256.043 187.264 256.22 187.264C256.398 187.264 256.572 187.312 256.725 187.401L316.53 222.468L436.527 291.754C436.679 291.842 436.805 291.968 436.893 292.12C436.981 292.272 437.027 292.445 437.027 292.62V361.903C437.027 362.078 436.981 362.251 436.893 362.403C436.805 362.555 436.679 362.681 436.527 362.769L256.527 466.714C256.375 466.802 256.203 466.848 256.027 466.848ZM77.0273 361.326L256.027 464.693L435.027 361.326V293.198L315.527 224.199L315.522 224.196L256.217 189.422L196.53 224.197L77.027 293.197L77.0273 361.326Z" fill="url(#paint3_linear_8838_152386)"/>
<path d="M256.027 397.554C255.852 397.555 255.679 397.508 255.527 397.42L75.5879 293.491L76.5879 291.76L256.027 395.4L435.588 291.76L436.588 293.492L256.527 397.421C256.375 397.509 256.203 397.555 256.027 397.554Z" fill="#4BC79A"/>
<path d="M257.027 396.555H255.027V465.848H257.027V396.555Z" fill="#4BC79A"/>
<path d="M196.969 431.122H194.969V361.84C194.969 361.664 195.015 361.491 195.103 361.339C195.19 361.187 195.317 361.061 195.469 360.973L375.578 257.113L376.578 258.846L196.969 362.417V431.122Z" fill="url(#paint4_linear_8838_152386)"/>
<path d="M315.107 431.203L315.028 362.492L135.467 258.781L136.467 257.049L316.527 361.048C316.679 361.136 316.806 361.262 316.893 361.414C316.981 361.565 317.027 361.738 317.027 361.913L317.107 431.201L315.107 431.203Z" fill="url(#paint5_linear_8838_152386)"/>
<g opacity="0.2">
<path d="M135.471 326.409L75.5234 361.031L76.5234 362.763L136.471 328.14L135.471 326.409Z" fill="#4BC79A"/>
</g>
<path opacity="0.2" d="M315.607 432.068L256.026 397.709L196.468 431.988L195.47 430.255L256.027 395.4L316.607 430.335L315.607 432.068Z" fill="#4BC79A"/>
<path opacity="0.2" d="M255.527 397.42L195.969 362.994L136.467 397.346L135.467 395.613L195.969 360.685L256.527 395.689L255.527 397.42Z" fill="#4BC79A"/>
<g opacity="0.2">
<path d="M376.527 326.396L375.527 328.128L435.527 362.769L436.528 361.037L376.527 326.396Z" fill="#4BC79A"/>
</g>
<path opacity="0.6" d="M256.006 328.285C255.831 328.286 255.658 328.239 255.506 328.152L195.469 293.489C195.317 293.401 195.191 293.275 195.103 293.123C195.015 292.971 194.969 292.798 194.969 292.623C194.969 292.447 195.015 292.275 195.103 292.123C195.191 291.97 195.317 291.844 195.469 291.757L255.506 257.099C255.658 257.012 255.831 256.965 256.006 256.965C256.182 256.965 256.354 257.012 256.506 257.099L316.528 291.757C316.68 291.844 316.806 291.97 316.894 292.123C316.982 292.275 317.028 292.447 317.028 292.623C317.028 292.798 316.982 292.971 316.894 293.123C316.806 293.275 316.68 293.401 316.528 293.489L256.506 328.152C256.354 328.239 256.182 328.285 256.006 328.285ZM197.969 292.623L256.006 326.13L314.028 292.622L256.006 259.12L197.969 292.623Z" fill="#4BC79A"/>
<path opacity="0.55" d="M256.015 339.022C255.84 339.022 255.667 338.976 255.515 338.888L176.857 293.489C176.705 293.402 176.578 293.275 176.491 293.123C176.403 292.971 176.356 292.799 176.356 292.623C176.356 292.448 176.403 292.275 176.491 292.123C176.578 291.971 176.705 291.845 176.857 291.757L255.505 246.354C255.657 246.266 255.83 246.22 256.005 246.22C256.181 246.22 256.353 246.266 256.505 246.354L335.14 291.754C335.293 291.841 335.419 291.968 335.507 292.12C335.594 292.272 335.641 292.444 335.641 292.62C335.641 292.795 335.594 292.968 335.507 293.12C335.419 293.272 335.293 293.398 335.14 293.486L256.515 338.888C256.363 338.976 256.191 339.022 256.015 339.022ZM179.357 292.623L256.015 336.867L332.64 292.62L256.005 248.375L179.357 292.623Z" fill="#4BC79A"/>
<path opacity="0.5" d="M256.023 349.759C255.847 349.759 255.675 349.713 255.523 349.625L158.244 293.49C158.092 293.402 157.966 293.276 157.878 293.124C157.79 292.972 157.744 292.799 157.744 292.624C157.744 292.448 157.79 292.276 157.878 292.124C157.966 291.971 158.092 291.845 158.244 291.757L255.504 235.609C255.656 235.521 255.829 235.475 256.004 235.475C256.18 235.475 256.352 235.521 256.504 235.609L353.753 291.751C353.906 291.838 354.032 291.965 354.12 292.117C354.208 292.269 354.254 292.441 354.254 292.617C354.254 292.792 354.208 292.965 354.12 293.117C354.032 293.269 353.906 293.395 353.753 293.483L256.523 349.625C256.371 349.713 256.199 349.759 256.023 349.759ZM160.744 292.623L256.023 347.604L351.253 292.617L256.004 237.629L160.744 292.623Z" fill="#4BC79A"/>
<path opacity="0.45" d="M256.032 360.495C255.856 360.496 255.684 360.449 255.532 360.362L139.632 293.49C139.48 293.402 139.354 293.276 139.266 293.124C139.178 292.972 139.132 292.799 139.132 292.624C139.132 292.448 139.178 292.276 139.266 292.124C139.354 291.971 139.48 291.845 139.632 291.757L255.504 224.863C255.656 224.775 255.829 224.729 256.004 224.729C256.18 224.729 256.352 224.775 256.504 224.863L372.366 291.748C372.518 291.836 372.644 291.962 372.732 292.114C372.82 292.266 372.866 292.439 372.866 292.614C372.866 292.79 372.82 292.962 372.732 293.114C372.644 293.266 372.518 293.393 372.366 293.48L256.532 360.362C256.38 360.45 256.207 360.496 256.032 360.495ZM142.133 292.623L256.032 358.341L369.866 292.614L256.004 226.884L142.133 292.623Z" fill="#4BC79A"/>
<path opacity="0.4" d="M256.04 371.232C255.864 371.232 255.692 371.186 255.54 371.098L121.02 293.491C120.868 293.403 120.741 293.277 120.654 293.125C120.566 292.973 120.52 292.8 120.52 292.625C120.52 292.449 120.566 292.277 120.654 292.125C120.741 291.972 120.868 291.846 121.02 291.758L255.503 214.118C255.655 214.03 255.828 213.984 256.003 213.984C256.179 213.984 256.351 214.03 256.503 214.118L390.978 291.745C391.13 291.833 391.256 291.959 391.344 292.111C391.432 292.263 391.478 292.436 391.478 292.611C391.478 292.787 391.432 292.96 391.344 293.112C391.256 293.264 391.13 293.39 390.978 293.478L256.54 371.098C256.388 371.186 256.215 371.232 256.04 371.232ZM123.52 292.624L256.04 369.077L388.477 292.611L256.003 216.139L123.52 292.624Z" fill="#4BC79A"/>
<path opacity="0.35" d="M256.048 381.969C255.873 381.969 255.7 381.923 255.548 381.835L102.408 293.491C102.255 293.404 102.129 293.277 102.041 293.125C101.953 292.973 101.907 292.801 101.907 292.625C101.907 292.45 101.953 292.277 102.041 292.125C102.129 291.973 102.255 291.847 102.408 291.759L255.502 203.372C255.654 203.284 255.827 203.238 256.002 203.238C256.178 203.238 256.35 203.284 256.502 203.372L409.591 291.743C409.743 291.831 409.87 291.957 409.957 292.109C410.045 292.261 410.091 292.433 410.091 292.609C410.091 292.785 410.045 292.957 409.957 293.109C409.87 293.261 409.743 293.388 409.591 293.475L256.548 381.835C256.396 381.923 256.224 381.969 256.048 381.969ZM104.908 292.625L256.048 379.815L407.091 292.61L256.002 205.393L104.908 292.625Z" fill="#4BC79A"/>
<path opacity="0.3" d="M256.057 392.705C255.881 392.705 255.709 392.659 255.557 392.572L83.7952 293.492C83.6431 293.404 83.5168 293.278 83.429 293.126C83.3412 292.973 83.2949 292.801 83.2949 292.625C83.2949 292.45 83.3412 292.277 83.429 292.125C83.5168 291.973 83.6431 291.847 83.7952 291.759L255.501 192.627C255.653 192.539 255.826 192.493 256.001 192.493C256.177 192.493 256.349 192.539 256.501 192.627L428.203 291.74C428.356 291.827 428.482 291.954 428.57 292.106C428.658 292.258 428.704 292.43 428.704 292.606C428.704 292.782 428.658 292.954 428.57 293.106C428.482 293.258 428.356 293.385 428.203 293.472L256.557 392.572C256.405 392.66 256.232 392.706 256.057 392.705ZM86.2962 292.625L256.057 390.551L425.703 292.606L256.001 194.648L86.2962 292.625Z" fill="#4BC79A"/>
<path opacity="0.25" d="M256.065 403.443C255.889 403.443 255.717 403.397 255.565 403.309L65.1829 293.492C65.0308 293.405 64.9045 293.278 64.8167 293.126C64.7289 292.974 64.6826 292.802 64.6826 292.626C64.6826 292.451 64.7289 292.278 64.8167 292.126C64.9045 291.974 65.0308 291.848 65.1829 291.76L255.5 181.882C255.652 181.794 255.825 181.748 256 181.748C256.176 181.748 256.348 181.794 256.5 181.882L446.817 291.737C446.969 291.825 447.095 291.951 447.183 292.103C447.271 292.255 447.317 292.428 447.317 292.603C447.317 292.779 447.271 292.951 447.183 293.103C447.095 293.255 446.969 293.382 446.817 293.469L256.565 403.309C256.413 403.397 256.24 403.443 256.065 403.443ZM67.6839 292.626L256.065 401.288L444.317 292.603L256 183.903L67.6839 292.626Z" fill="#4BC79A"/>
<path opacity="0.2" d="M256.073 414.179C255.897 414.179 255.725 414.133 255.573 414.046L46.5696 293.493C46.4175 293.405 46.2912 293.279 46.2034 293.127C46.1156 292.975 46.0693 292.802 46.0693 292.627C46.0693 292.451 46.1156 292.279 46.2034 292.127C46.2912 291.975 46.4175 291.848 46.5696 291.761L255.499 171.136C255.651 171.049 255.823 171.002 255.999 171.002C256.174 171.002 256.347 171.049 256.499 171.136L465.429 291.735C465.581 291.822 465.707 291.949 465.795 292.101C465.883 292.253 465.929 292.425 465.929 292.601C465.929 292.776 465.883 292.949 465.795 293.101C465.707 293.253 465.581 293.379 465.429 293.467L256.573 414.046C256.421 414.133 256.248 414.179 256.073 414.179ZM49.0709 292.626L256.073 412.025L462.928 292.601L255.999 173.157L49.0709 292.626Z" fill="#4BC79A"/>
<path opacity="0.15" d="M256.082 424.916C255.907 424.916 255.734 424.87 255.582 424.782L27.9584 293.493C27.8063 293.405 27.6799 293.279 27.5921 293.127C27.5043 292.975 27.458 292.802 27.458 292.627C27.458 292.451 27.5043 292.279 27.5921 292.127C27.6799 291.974 27.8063 291.848 27.9584 291.76L255.499 160.39C255.651 160.303 255.824 160.257 255.999 160.257C256.175 160.257 256.347 160.303 256.499 160.39L484.041 291.731C484.194 291.819 484.32 291.945 484.408 292.097C484.496 292.249 484.542 292.422 484.542 292.597C484.542 292.773 484.496 292.946 484.408 293.098C484.32 293.25 484.194 293.376 484.041 293.464L256.582 424.782C256.43 424.87 256.258 424.916 256.082 424.916ZM30.4594 292.626L256.082 422.761L481.541 292.597L255.999 162.411L30.4594 292.626Z" fill="#4BC79A"/>
<path opacity="0.1" d="M256.09 435.653C255.915 435.653 255.742 435.607 255.59 435.519L9.34609 293.494C9.19397 293.406 9.06763 293.28 8.97979 293.128C8.89195 292.976 8.8457 292.803 8.8457 292.628C8.8457 292.452 8.89195 292.28 8.97979 292.127C9.06763 291.975 9.19397 291.849 9.34609 291.761L255.498 149.646C255.65 149.558 255.823 149.512 255.998 149.512C256.174 149.512 256.346 149.558 256.498 149.646L502.655 291.729C502.807 291.817 502.933 291.943 503.021 292.095C503.109 292.247 503.155 292.42 503.155 292.595C503.155 292.771 503.109 292.943 503.021 293.096C502.933 293.248 502.807 293.374 502.655 293.462L256.59 435.519C256.438 435.607 256.266 435.653 256.09 435.653ZM11.8471 292.627L256.09 433.499L500.155 292.595L255.998 151.667L11.8471 292.627Z" fill="#4BC79A"/>
<path opacity="0.2" d="M316.527 361.048L315.527 362.78L375.527 397.416L376.527 395.683L316.527 361.048Z" fill="#4BC79A"/>
<path d="M256.006 328.285C255.831 328.286 255.658 328.239 255.506 328.152L195.469 293.489C195.317 293.401 195.191 293.275 195.103 293.123C195.015 292.971 194.969 292.798 194.969 292.623C194.969 292.447 195.015 292.275 195.103 292.123C195.191 291.97 195.317 291.844 195.469 291.757L255.506 257.099C255.658 257.012 255.831 256.965 256.006 256.965C256.182 256.965 256.354 257.012 256.506 257.099L316.528 291.757C316.68 291.844 316.806 291.97 316.894 292.123C316.982 292.275 317.028 292.447 317.028 292.623C317.028 292.798 316.982 292.971 316.894 293.123C316.806 293.275 316.68 293.401 316.528 293.489L256.506 328.152C256.354 328.239 256.182 328.285 256.006 328.285ZM197.969 292.623L256.006 326.13L314.028 292.622L256.006 259.12L197.969 292.623Z" fill="white"/>
<path opacity="0.9" d="M316.37 153.432V222.896L256.22 257.629L196.067 222.896V153.432L256.219 118.7L316.37 153.432Z" fill="black"/>
<g opacity="0.4">
<path opacity="0.3" d="M255.72 187.397L195.568 222.031L196.566 223.764L256.718 189.131L255.72 187.397Z" fill="#4BC79A"/>
<path opacity="0.3" d="M256.718 187.397L255.72 189.13L315.87 223.764L316.868 222.03L256.718 187.397Z" fill="#4BC79A"/>
</g>
<path d="M256.219 188.264V257.628L316.369 222.896V153.432L256.219 188.264Z" fill="url(#paint6_linear_8838_152386)"/>
<path d="M256.217 189.264C256.042 189.264 255.869 189.217 255.717 189.129L195.566 154.298C195.449 154.235 195.345 154.148 195.262 154.044C195.178 153.939 195.117 153.819 195.08 153.69C195.044 153.562 195.034 153.427 195.051 153.294C195.068 153.162 195.111 153.034 195.178 152.918C195.245 152.803 195.334 152.702 195.441 152.621C195.548 152.541 195.669 152.482 195.799 152.45C195.929 152.417 196.063 152.411 196.196 152.431C196.328 152.452 196.454 152.498 196.568 152.568L256.72 187.398C256.91 187.509 257.059 187.679 257.143 187.882C257.227 188.086 257.241 188.311 257.184 188.524C257.127 188.736 257.001 188.924 256.826 189.058C256.652 189.191 256.438 189.264 256.217 189.264Z" fill="url(#paint7_linear_8838_152386)"/>
<path d="M256.219 258.631C255.954 258.631 255.699 258.525 255.512 258.338C255.324 258.15 255.219 257.896 255.219 257.631V188.264C255.219 188.088 255.265 187.916 255.353 187.764C255.44 187.612 255.566 187.486 255.718 187.398L315.868 152.567C316.097 152.44 316.367 152.408 316.619 152.478C316.871 152.548 317.086 152.714 317.217 152.941C317.348 153.167 317.385 153.436 317.32 153.69C317.255 153.944 317.094 154.162 316.87 154.297L257.219 188.84V257.63C257.219 257.762 257.193 257.892 257.143 258.013C257.092 258.135 257.019 258.245 256.926 258.338C256.833 258.431 256.723 258.504 256.601 258.555C256.48 258.605 256.35 258.631 256.219 258.631Z" fill="url(#paint8_linear_8838_152386)"/>
<path d="M256.217 258.629C256.042 258.629 255.869 258.583 255.717 258.495L195.567 223.762C195.415 223.675 195.289 223.548 195.201 223.396C195.114 223.244 195.067 223.072 195.067 222.896V153.432C195.067 153.257 195.114 153.084 195.201 152.932C195.289 152.78 195.415 152.654 195.567 152.566L255.717 117.834C255.869 117.746 256.042 117.7 256.217 117.7C256.393 117.7 256.565 117.746 256.717 117.834L316.869 152.566C317.021 152.654 317.147 152.78 317.235 152.932C317.323 153.084 317.369 153.257 317.369 153.432V222.896C317.369 223.072 317.323 223.244 317.235 223.396C317.147 223.548 317.021 223.675 316.869 223.762L256.717 258.495C256.565 258.583 256.393 258.629 256.217 258.629ZM197.067 222.319L256.217 256.473L315.369 222.319V154.009L256.217 119.854L197.067 154.009V222.319Z" fill="url(#paint9_linear_8838_152386)"/>
<path d="M213.439 190.254L206.959 186.536C206.321 186.111 205.79 186.429 205.79 187.173V199.709C205.822 200.097 205.944 200.472 206.147 200.804C206.35 201.136 206.628 201.416 206.959 201.621L213.439 205.339C214.077 205.764 214.608 205.446 214.608 204.702V192.166C214.576 191.778 214.454 191.403 214.251 191.071C214.048 190.739 213.77 190.459 213.439 190.254ZM212.27 202.259L208.127 199.815V189.829L212.27 192.272V202.259Z" fill="#4BC79A"/>
<path d="M206.959 183.459L213.439 187.177C214.076 187.496 214.607 187.283 214.607 186.54V174.004C214.575 173.616 214.453 173.241 214.25 172.909C214.047 172.577 213.769 172.297 213.439 172.092L206.959 168.373C206.321 167.949 205.79 168.267 205.79 169.011V181.547C205.822 181.935 205.944 182.31 206.147 182.642C206.35 182.974 206.628 183.254 206.959 183.459ZM208.127 171.56L212.27 174.004V183.99L208.127 181.547V171.56Z" fill="#4BC79A"/>
<path d="M217.368 186.961C216.73 186.642 216.199 186.855 216.199 187.598C216.231 187.986 216.353 188.361 216.556 188.693C216.759 189.025 217.037 189.305 217.368 189.51L223.848 193.229C224.486 193.654 225.017 193.335 225.017 192.591C224.985 192.203 224.863 191.828 224.66 191.496C224.457 191.164 224.179 190.884 223.848 190.679L221.83 189.404V178.146C221.823 177.769 221.713 177.402 221.511 177.084C221.283 176.75 220.995 176.461 220.661 176.234L217.368 174.428C216.731 174.003 216.199 174.322 216.199 175.065C216.231 175.453 216.353 175.828 216.556 176.16C216.759 176.492 217.037 176.772 217.368 176.977L219.493 178.146V188.129L217.368 186.961Z" fill="#4BC79A"/>
<path d="M228.525 214.165L235.005 217.883C235.643 218.308 236.174 217.989 236.174 217.245V204.71C236.142 204.322 236.02 203.947 235.817 203.614C235.614 203.282 235.336 203.002 235.005 202.797L228.525 199.079C227.888 198.76 227.356 198.973 227.356 199.716V212.252C227.388 212.64 227.511 213.015 227.714 213.347C227.916 213.679 228.194 213.959 228.525 214.165ZM229.694 202.266L233.837 204.71V214.696L229.694 212.252V202.266Z" fill="#4BC79A"/>
<path d="M228.419 193.338C227.782 193.019 227.251 193.338 227.251 193.975C227.283 194.363 227.405 194.738 227.608 195.07C227.811 195.402 228.089 195.682 228.419 195.887L234.9 199.605C235.537 199.924 236.069 199.712 236.069 198.968C236.037 198.58 235.915 198.205 235.712 197.873C235.509 197.541 235.231 197.261 234.9 197.056L232.882 195.781V184.524C232.875 184.148 232.765 183.78 232.563 183.462C232.335 183.128 232.047 182.84 231.713 182.612L228.419 180.806C227.782 180.487 227.251 180.7 227.251 181.443C227.283 181.831 227.405 182.206 227.608 182.538C227.811 182.87 228.089 183.15 228.419 183.356L230.544 184.524V194.506L228.419 193.338Z" fill="#4BC79A"/>
<path d="M245.522 240.185L243.504 238.911V227.545C243.497 227.169 243.387 226.801 243.185 226.483C242.957 226.149 242.669 225.861 242.335 225.633L239.042 223.827C238.404 223.508 237.873 223.721 237.873 224.464C237.905 224.852 238.027 225.227 238.23 225.559C238.433 225.892 238.711 226.171 239.042 226.377L241.166 227.545V237.636L239.042 236.467C238.404 236.148 237.873 236.361 237.873 237.104C237.905 237.492 238.027 237.867 238.23 238.199C238.433 238.532 238.711 238.812 239.042 239.017L245.522 242.735C246.16 243.054 246.691 242.841 246.691 242.098C246.659 241.71 246.537 241.335 246.334 241.003C246.131 240.671 245.853 240.391 245.522 240.185Z" fill="#4BC79A"/>
<path d="M241.166 218.841L239.041 217.672C238.404 217.354 237.873 217.566 237.873 218.31C237.904 218.698 238.027 219.073 238.23 219.405C238.433 219.737 238.71 220.017 239.041 220.222L245.521 223.941C246.159 224.259 246.69 223.94 246.69 223.303C246.658 222.915 246.536 222.54 246.333 222.208C246.13 221.876 245.852 221.596 245.521 221.391L243.503 220.116V208.853C243.496 208.476 243.386 208.109 243.184 207.79C242.956 207.456 242.668 207.168 242.334 206.94L239.041 205.134C238.403 204.816 237.872 205.134 237.872 205.772C237.904 206.16 238.026 206.535 238.229 206.867C238.432 207.199 238.71 207.479 239.041 207.684L241.165 208.853L241.166 218.841Z" fill="#4BC79A"/>
<path d="M240.848 200.458L238.723 199.289C238.085 198.971 237.554 199.183 237.554 199.927C237.586 200.315 237.708 200.69 237.911 201.022C238.114 201.354 238.392 201.634 238.723 201.839L245.203 205.557C245.84 205.876 246.371 205.664 246.371 204.92C246.34 204.532 246.217 204.157 246.014 203.825C245.811 203.493 245.533 203.213 245.203 203.008L243.184 201.733V190.468C243.178 190.091 243.067 189.724 242.866 189.405C242.638 189.072 242.349 188.783 242.016 188.555L238.722 186.749C238.085 186.431 237.554 186.643 237.554 187.387C237.585 187.775 237.708 188.15 237.911 188.482C238.114 188.814 238.392 189.094 238.722 189.299L240.847 190.468L240.848 200.458Z" fill="#4BC79A"/>
<path d="M223.956 208.951L221.937 207.677V196.419C221.931 196.042 221.82 195.674 221.618 195.356C221.391 195.022 221.102 194.734 220.768 194.506L217.475 192.7C216.838 192.275 216.307 192.594 216.307 193.338C216.338 193.725 216.461 194.101 216.664 194.433C216.866 194.765 217.144 195.045 217.475 195.25L219.6 196.418V206.402L217.475 205.233C216.838 204.914 216.307 205.127 216.307 205.87C216.338 206.258 216.461 206.633 216.664 206.966C216.866 207.298 217.144 207.578 217.475 207.783L223.956 211.501C224.593 211.926 225.124 211.607 225.124 210.864C225.092 210.476 224.97 210.101 224.767 209.769C224.564 209.437 224.286 209.157 223.956 208.951Z" fill="#4BC79A"/>
<path d="M223.848 215.011L217.368 211.187C216.73 210.868 216.199 211.081 216.199 211.824V224.466C216.231 224.854 216.353 225.229 216.556 225.561C216.759 225.893 217.037 226.173 217.368 226.379L223.848 230.097C224.486 230.415 225.017 230.203 225.017 229.46V216.924C224.985 216.536 224.863 216.161 224.66 215.829C224.457 215.497 224.179 215.217 223.848 215.011ZM222.68 226.91L218.537 224.466V214.48L222.68 216.923V226.91Z" fill="#4BC79A"/>
<path d="M235.323 221.599L228.843 217.88C228.205 217.455 227.674 217.774 227.674 218.518V231.054C227.706 231.442 227.828 231.817 228.031 232.149C228.234 232.481 228.512 232.761 228.843 232.966L235.323 236.684C235.96 237.003 236.491 236.79 236.491 236.047V223.511C236.46 223.123 236.337 222.748 236.134 222.416C235.931 222.084 235.653 221.804 235.323 221.599ZM234.154 233.497L230.011 231.054V221.067L234.154 223.511V233.497Z" fill="#4BC79A"/>
<path d="M213.439 221.602L211.421 220.327V209.062C211.414 208.685 211.304 208.318 211.102 208C210.874 207.666 210.586 207.378 210.252 207.15L206.959 205.344C206.321 205.025 205.79 205.238 205.79 205.981C205.822 206.369 205.944 206.744 206.147 207.076C206.35 207.409 206.628 207.688 206.959 207.894L209.083 209.062V219.052L206.959 217.884C206.321 217.565 205.79 217.777 205.79 218.521C205.822 218.909 205.944 219.284 206.147 219.616C206.35 219.948 206.628 220.228 206.959 220.433L213.439 224.152C214.077 224.47 214.608 224.258 214.608 223.514C214.576 223.126 214.454 222.751 214.251 222.419C214.048 222.087 213.77 221.807 213.439 221.602Z" fill="#4BC79A"/>
<path d="M256.217 258.629C256.042 258.629 255.869 258.583 255.717 258.495L195.567 223.762C195.415 223.675 195.289 223.548 195.201 223.396C195.114 223.244 195.067 223.072 195.067 222.896V153.432C195.067 153.257 195.114 153.084 195.201 152.932C195.289 152.78 195.415 152.654 195.567 152.566L255.717 117.834C255.869 117.746 256.042 117.7 256.217 117.7C256.393 117.7 256.565 117.746 256.717 117.834L316.869 152.566C317.021 152.654 317.147 152.78 317.235 152.932C317.323 153.084 317.369 153.257 317.369 153.432V222.896C317.369 223.072 317.323 223.244 317.235 223.396C317.147 223.548 317.021 223.675 316.869 223.762L256.717 258.495C256.565 258.583 256.393 258.629 256.217 258.629ZM197.067 222.319L256.217 256.473L315.369 222.319V154.009L256.217 119.854L197.067 154.009V222.319Z" fill="url(#paint10_linear_8838_152386)"/>
<g filter="url(#filter0_f_8838_152386)">
<path d="M289.218 264.355L281.174 250.485L262.053 217.953C261.285 217.124 260.355 216.462 259.32 216.008C258.286 215.554 257.168 215.318 256.039 215.314L256.004 215.315C254.56 215.322 253.143 215.709 251.896 216.436C250.649 217.164 249.614 218.207 248.897 219.46L240.709 233.802L223.185 264.396C222.94 264.835 222.736 265.296 222.577 265.772C222.139 267.01 222.006 268.334 222.187 269.634C222.368 270.934 222.859 272.172 223.618 273.243C224.377 274.314 225.382 275.187 226.549 275.788C227.715 276.39 229.009 276.702 230.322 276.7H282.105C282.648 276.694 283.19 276.634 283.721 276.52C285.003 276.268 286.205 275.712 287.228 274.901C288.252 274.089 289.066 273.045 289.604 271.854C290.142 270.664 290.388 269.363 290.321 268.058C290.253 266.754 289.875 265.484 289.218 264.355Z" fill="black"/>
</g>
<path d="M230.322 268.992H240.716L250.275 232.495L229.874 268.225C229.829 268.303 229.806 268.392 229.807 268.482C229.807 268.572 229.831 268.66 229.877 268.738C229.922 268.815 229.987 268.88 230.065 268.924C230.143 268.969 230.232 268.992 230.322 268.992Z" fill="url(#paint11_linear_8838_152386)"/>
<path d="M277.448 259.423L240.771 268.992H282.105C282.195 268.992 282.284 268.969 282.362 268.924C282.44 268.879 282.505 268.814 282.551 268.736C282.596 268.658 282.62 268.569 282.62 268.479C282.62 268.389 282.596 268.3 282.551 268.222L277.448 259.423Z" fill="url(#paint12_linear_8838_152386)"/>
<path d="M271.82 253.835L277.448 259.423L256.484 223.28C256.438 223.202 256.373 223.137 256.294 223.092C256.216 223.047 256.127 223.023 256.036 223.023C255.946 223.024 255.857 223.048 255.778 223.093C255.7 223.139 255.635 223.204 255.59 223.283L250.33 232.495L271.797 253.812L271.82 253.835Z" fill="url(#paint13_linear_8838_152386)"/>
<path d="M240.716 268.992L248.273 267.02L248.231 240.3L240.716 268.992Z" fill="url(#paint14_linear_8838_152386)"/>
<path d="M248.222 240.326L271.82 253.835L250.33 232.495L248.222 240.326Z" fill="url(#paint15_linear_8838_152386)"/>
<path d="M248.329 267.02L277.448 259.424L271.82 253.835L248.329 267.02Z" fill="url(#paint16_linear_8838_152386)"/>
<path d="M248.272 267.02L253.313 264.191L248.239 245.968L248.272 267.02Z" fill="url(#paint17_linear_8838_152386)"/>
<path d="M271.82 253.835L266.864 250.985L253.369 264.191L271.82 253.835Z" fill="url(#paint18_linear_8838_152386)"/>
<path d="M248.233 245.966L266.864 250.985L248.222 240.326L248.233 245.966Z" fill="url(#paint19_linear_8838_152386)"/>
<path d="M260.094 249.921L262.945 249.926L248.233 245.966L249.335 249.9L260.068 249.921H260.094Z" fill="url(#paint20_linear_8838_152386)"/>
<path d="M250.812 252.375L249.334 249.897L253.314 264.191L256.133 261.433L250.841 252.425L250.812 252.375Z" fill="url(#paint21_linear_8838_152386)"/>
<path d="M262.945 249.926L256.188 261.433L266.865 250.985L262.945 249.926Z" fill="url(#paint22_linear_8838_152386)"/>
<path d="M260.094 249.921L249.335 249.9L250.851 252.436L260.094 249.921Z" fill="url(#paint23_linear_8838_152386)"/>
<path d="M257.552 259.016L250.841 252.426L256.133 261.433L257.552 259.016Z" fill="url(#paint24_linear_8838_152386)"/>
<path d="M262.945 249.926L260.094 249.921L257.607 259.017L262.945 249.926Z" fill="url(#paint25_linear_8838_152386)"/>
<path d="M317.239 78.1684L315.239 78.1719L315.369 153.434L317.369 153.43L317.239 78.1684Z" fill="url(#paint26_linear_8838_152386)"/>
<path d="M308.634 73.5948L306.634 73.5981L306.776 158.396L308.776 158.393L308.634 73.5948Z" fill="url(#paint27_linear_8838_152386)"/>
<path d="M300.028 69.0201L298.028 69.0234L298.184 163.357L300.184 163.354L300.028 69.0201Z" fill="url(#paint28_linear_8838_152386)"/>
<path d="M291.423 64.4465L289.423 64.4497L289.591 168.319L291.591 168.316L291.423 64.4465Z" fill="url(#paint29_linear_8838_152386)"/>
<path d="M282.816 59.8723L280.816 59.8755L280.998 173.28L282.998 173.277L282.816 59.8723Z" fill="url(#paint30_linear_8838_152386)"/>
<path d="M274.211 55.2981L272.211 55.3013L272.404 178.242L274.404 178.239L274.211 55.2981Z" fill="url(#paint31_linear_8838_152386)"/>
<path d="M265.605 50.7239L263.605 50.7271L263.811 183.204L265.811 183.2L265.605 50.7239Z" fill="url(#paint32_linear_8838_152386)"/>
<path d="M256.998 45.9999L254.998 46.0029L255.211 188.015L257.211 188.012L256.998 45.9999Z" fill="url(#paint33_linear_8838_152386)"/>
<path d="M196.937 78.1684L194.938 78.1719L195.067 153.434L197.067 153.43L196.937 78.1684Z" fill="url(#paint34_linear_8838_152386)"/>
<path d="M205.518 73.5943L203.518 73.5977L203.661 158.396L205.661 158.392L205.518 73.5943Z" fill="url(#paint35_linear_8838_152386)"/>
<path d="M214.099 69.0201L212.099 69.0234L212.254 163.357L214.254 163.354L214.099 69.0201Z" fill="url(#paint36_linear_8838_152386)"/>
<path d="M222.679 64.4465L220.679 64.4497L220.847 168.319L222.847 168.316L222.679 64.4465Z" fill="url(#paint37_linear_8838_152386)"/>
<path d="M231.26 59.8708L229.26 59.874L229.441 173.279L231.441 173.276L231.26 59.8708Z" fill="url(#paint38_linear_8838_152386)"/>
<path d="M239.839 55.2981L237.839 55.3013L238.033 178.242L240.033 178.239L239.839 55.2981Z" fill="url(#paint39_linear_8838_152386)"/>
<path d="M248.42 50.7239L246.42 50.7271L246.626 183.204L248.626 183.2L248.42 50.7239Z" fill="url(#paint40_linear_8838_152386)"/>
</g>
<defs>
<filter id="filter0_f_8838_152386" x="208.108" y="201.314" width="96.2227" height="89.3853" filterUnits="userSpaceOnUse" color-interpolation-filters="sRGB">
<feFlood flood-opacity="0" result="BackgroundImageFix"/>
<feBlend mode="normal" in="SourceGraphic" in2="BackgroundImageFix" result="shape"/>
<feGaussianBlur stdDeviation="7" result="effect1_foregroundBlur_8838_152386"/>
</filter>
<linearGradient id="paint0_linear_8838_152386" x1="295.529" y1="338.379" x2="377.027" y2="338.379" gradientUnits="userSpaceOnUse">
<stop stop-color="#4BC79A" stop-opacity="0.4201"/>
<stop offset="1" stop-color="#4BC79A" stop-opacity="0.8"/>
</linearGradient>
<linearGradient id="paint1_linear_8838_152386" x1="134.967" y1="344.114" x2="196.527" y2="344.114" gradientUnits="userSpaceOnUse">
<stop stop-color="#4BC79A" stop-opacity="0.7"/>
<stop offset="1" stop-color="#4BC79A" stop-opacity="0.4"/>
</linearGradient>
<linearGradient id="paint2_linear_8838_152386" x1="405.316" y1="414.437" x2="342.859" y2="377.353" gradientUnits="userSpaceOnUse">
<stop stop-color="#4BC79A"/>
<stop offset="0.1293" stop-color="#4BC79A" stop-opacity="0.7686"/>
<stop offset="0.2797" stop-color="#4BC79A" stop-opacity="0.536"/>
<stop offset="0.4305" stop-color="#4BC79A" stop-opacity="0.343"/>
<stop offset="0.5792" stop-color="#4BC79A" stop-opacity="0.193"/>
<stop offset="0.7251" stop-color="#4BC79A" stop-opacity="0.0859"/>
<stop offset="0.8668" stop-color="#4BC79A" stop-opacity="0.0217"/>
<stop offset="1" stop-color="#4BC79A" stop-opacity="0"/>
</linearGradient>
<linearGradient id="paint3_linear_8838_152386" x1="75.0273" y1="327.056" x2="437.027" y2="327.056" gradientUnits="userSpaceOnUse">
<stop stop-color="#4BC79A" stop-opacity="0.4"/>
<stop offset="0.6201" stop-color="#4BC79A"/>
</linearGradient>
<linearGradient id="paint4_linear_8838_152386" x1="194.969" y1="344.118" x2="376.578" y2="344.118" gradientUnits="userSpaceOnUse">
<stop stop-color="#4BC79A" stop-opacity="0.7"/>
<stop offset="1" stop-color="#4BC79A" stop-opacity="0.4"/>
</linearGradient>
<linearGradient id="paint5_linear_8838_152386" x1="135.467" y1="344.126" x2="317.107" y2="344.126" gradientUnits="userSpaceOnUse">
<stop stop-color="#4BC79A" stop-opacity="0.4"/>
<stop offset="1" stop-color="#4BC79A" stop-opacity="0.8"/>
</linearGradient>
<linearGradient id="paint6_linear_8838_152386" x1="317.195" y1="221.275" x2="255.433" y2="189.806" gradientUnits="userSpaceOnUse">
<stop stop-color="#4BC79A"/>
<stop offset="1" stop-color="#4BC79A" stop-opacity="0"/>
</linearGradient>
<linearGradient id="paint7_linear_8838_152386" x1="257.219" y1="170.848" x2="195.067" y2="170.848" gradientUnits="userSpaceOnUse">
<stop offset="0.0955" stop-color="#4BC79A"/>
<stop offset="0.9288" stop-color="#4BC79A" stop-opacity="0.8667"/>
</linearGradient>
<linearGradient id="paint8_linear_8838_152386" x1="255.219" y1="205.532" x2="317.37" y2="205.532" gradientUnits="userSpaceOnUse">
<stop offset="0.0955" stop-color="#4BC79A"/>
<stop offset="0.9288" stop-color="#4BC79A" stop-opacity="0.8667"/>
</linearGradient>
<linearGradient id="paint9_linear_8838_152386" x1="321.962" y1="169.312" x2="190.473" y2="207.016" gradientUnits="userSpaceOnUse">
<stop stop-color="#4BC79A"/>
<stop offset="0.1194" stop-color="#4BC79A"/>
<stop offset="0.2972" stop-color="#4BC79A"/>
<stop offset="0.5116" stop-color="#4BC79A"/>
<stop offset="0.7544" stop-color="#4BC79A"/>
<stop offset="1" stop-color="#4BC79A"/>
</linearGradient>
<linearGradient id="paint10_linear_8838_152386" x1="321.962" y1="169.312" x2="190.473" y2="207.016" gradientUnits="userSpaceOnUse">
<stop stop-color="white"/>
<stop offset="1" stop-color="white" stop-opacity="0"/>
</linearGradient>
<linearGradient id="paint11_linear_8838_152386" x1="241.97" y1="268.86" x2="238.281" y2="233.756" gradientUnits="userSpaceOnUse">
<stop stop-color="#C1C2C1"/>
<stop offset="0.1018" stop-color="#D8D8D8"/>
<stop offset="0.2186" stop-color="#E9EAE9"/>
<stop offset="0.3603" stop-color="#F6F6F6"/>
<stop offset="0.551" stop-color="#FDFDFD"/>
<stop offset="1" stop-color="white"/>
</linearGradient>
<linearGradient id="paint12_linear_8838_152386" x1="276.496" y1="258.113" x2="247.941" y2="278.859" gradientUnits="userSpaceOnUse">
<stop stop-color="#C1C2C1"/>
<stop offset="0.1018" stop-color="#D8D8D8"/>
<stop offset="0.2186" stop-color="#E9EAE9"/>
<stop offset="0.3603" stop-color="#F6F6F6"/>
<stop offset="0.551" stop-color="#FDFDFD"/>
<stop offset="1" stop-color="white"/>
</linearGradient>
<linearGradient id="paint13_linear_8838_152386" x1="249.811" y1="233.66" x2="282.448" y2="248.191" gradientUnits="userSpaceOnUse">
<stop stop-color="#C1C2C1"/>
<stop offset="0.1018" stop-color="#D8D8D8"/>
<stop offset="0.2186" stop-color="#E9EAE9"/>
<stop offset="0.3603" stop-color="#F6F6F6"/>
<stop offset="0.551" stop-color="#FDFDFD"/>
<stop offset="1" stop-color="white"/>
</linearGradient>
<linearGradient id="paint14_linear_8838_152386" x1="245.924" y1="268.445" x2="243.023" y2="240.848" gradientUnits="userSpaceOnUse">
<stop stop-color="#B4B5B5"/>
<stop offset="0.1294" stop-color="#C9CACA"/>
<stop offset="0.3154" stop-color="#E1E1E1"/>
<stop offset="0.5136" stop-color="#F2F2F2"/>
<stop offset="0.7303" stop-color="#FCFCFC"/>
<stop offset="1" stop-color="white"/>
</linearGradient>
<linearGradient id="paint15_linear_8838_152386" x1="248.143" y1="237.408" x2="274.006" y2="248.923" gradientUnits="userSpaceOnUse">
<stop stop-color="#B4B5B5"/>
<stop offset="0.1294" stop-color="#C9CACA"/>
<stop offset="0.3154" stop-color="#E1E1E1"/>
<stop offset="0.5136" stop-color="#F2F2F2"/>
<stop offset="0.7303" stop-color="#FCFCFC"/>
<stop offset="1" stop-color="white"/>
</linearGradient>
<linearGradient id="paint16_linear_8838_152386" x1="274.224" y1="254.986" x2="251.553" y2="271.458" gradientUnits="userSpaceOnUse">
<stop stop-color="#B4B5B5"/>
<stop offset="0.1294" stop-color="#C9CACA"/>
<stop offset="0.3154" stop-color="#E1E1E1"/>
<stop offset="0.5136" stop-color="#F2F2F2"/>
<stop offset="0.7303" stop-color="#FCFCFC"/>
<stop offset="1" stop-color="white"/>
</linearGradient>
<linearGradient id="paint17_linear_8838_152386" x1="251.046" y1="266.225" x2="245.466" y2="246.764" gradientUnits="userSpaceOnUse">
<stop stop-color="#B4B5B5"/>
<stop offset="0.2316" stop-color="#CECFCF"/>
<stop offset="0.5309" stop-color="#E9E9E9"/>
<stop offset="0.7968" stop-color="#F9F9F9"/>
<stop offset="1" stop-color="white"/>
</linearGradient>
<linearGradient id="paint18_linear_8838_152386" x1="269.634" y1="251.724" x2="255.555" y2="266.303" gradientUnits="userSpaceOnUse">
<stop stop-color="#B4B5B5"/>
<stop offset="0.2316" stop-color="#CECFCF"/>
<stop offset="0.5309" stop-color="#E9E9E9"/>
<stop offset="0.7968" stop-color="#F9F9F9"/>
<stop offset="1" stop-color="white"/>
</linearGradient>
<linearGradient id="paint19_linear_8838_152386" x1="247.516" y1="243.156" x2="267.569" y2="248.156" gradientUnits="userSpaceOnUse">
<stop stop-color="#B4B5B5"/>
<stop offset="0.2316" stop-color="#CECFCF"/>
<stop offset="0.5309" stop-color="#E9E9E9"/>
<stop offset="0.7968" stop-color="#F9F9F9"/>
<stop offset="1" stop-color="white"/>
</linearGradient>
<linearGradient id="paint20_linear_8838_152386" x1="248.083" y1="247.878" x2="263.014" y2="249.053" gradientUnits="userSpaceOnUse">
<stop stop-color="#A8A9A9"/>
<stop offset="0.2112" stop-color="#BDBEBE"/>
<stop offset="0.7376" stop-color="#EDEDED"/>
<stop offset="1" stop-color="white"/>
</linearGradient>
<linearGradient id="paint21_linear_8838_152386" x1="254.996" y1="263.371" x2="248.599" y2="250.256" gradientUnits="userSpaceOnUse">
<stop stop-color="#A8A9A9"/>
<stop offset="0.2112" stop-color="#BDBEBE"/>
<stop offset="0.7376" stop-color="#EDEDED"/>
<stop offset="1" stop-color="white"/>
</linearGradient>
<linearGradient id="paint22_linear_8838_152386" x1="265.272" y1="249.911" x2="257.09" y2="262.041" gradientUnits="userSpaceOnUse">
<stop stop-color="#A8A9A9"/>
<stop offset="0.2112" stop-color="#BDBEBE"/>
<stop offset="0.7376" stop-color="#EDEDED"/>
<stop offset="1" stop-color="white"/>
</linearGradient>
<linearGradient id="paint23_linear_8838_152386" x1="249.998" y1="251.674" x2="259.431" y2="248.147" gradientUnits="userSpaceOnUse">
<stop stop-color="#9C9D9C"/>
<stop offset="0.171" stop-color="#A2A3A2"/>
<stop offset="0.3948" stop-color="#B2B3B2"/>
<stop offset="0.6479" stop-color="#CDCECD"/>
<stop offset="0.9206" stop-color="#F3F3F3"/>
<stop offset="1" stop-color="white"/>
</linearGradient>
<linearGradient id="paint24_linear_8838_152386" x1="257.257" y1="260.092" x2="249.717" y2="253.765" gradientUnits="userSpaceOnUse">
<stop stop-color="#9C9D9C"/>
<stop offset="0.171" stop-color="#A2A3A2"/>
<stop offset="0.3948" stop-color="#B2B3B2"/>
<stop offset="0.6479" stop-color="#CDCECD"/>
<stop offset="0.9206" stop-color="#F3F3F3"/>
<stop offset="1" stop-color="white"/>
</linearGradient>
<linearGradient id="paint25_linear_8838_152386" x1="261.134" y1="249.607" x2="259.419" y2="259.336" gradientUnits="userSpaceOnUse">
<stop stop-color="#9C9D9C"/>
<stop offset="0.171" stop-color="#A2A3A2"/>
<stop offset="0.3948" stop-color="#B2B3B2"/>
<stop offset="0.6479" stop-color="#CDCECD"/>
<stop offset="0.9206" stop-color="#F3F3F3"/>
<stop offset="1" stop-color="white"/>
</linearGradient>
<linearGradient id="paint26_linear_8838_152386" x1="317" y1="78" x2="316.32" y2="188.151" gradientUnits="userSpaceOnUse">
<stop stop-color="#4BC79A" stop-opacity="0"/>
<stop offset="1" stop-color="#4BC79A" stop-opacity="0.4"/>
</linearGradient>
<linearGradient id="paint27_linear_8838_152386" x1="308" y1="70" x2="307.491" y2="191.811" gradientUnits="userSpaceOnUse">
<stop stop-color="#4BC79A" stop-opacity="0"/>
<stop offset="0.9999" stop-color="#4BC79A" stop-opacity="0.4"/>
<stop offset="1" stop-color="#4BC79A" stop-opacity="0.6"/>
</linearGradient>
<linearGradient id="paint28_linear_8838_152386" x1="299" y1="67" x2="299.071" y2="194.489" gradientUnits="userSpaceOnUse">
<stop stop-color="#4BC79A" stop-opacity="0"/>
<stop offset="1" stop-color="#4BC79A" stop-opacity="0.4"/>
</linearGradient>
<linearGradient id="paint29_linear_8838_152386" x1="291" y1="62.5" x2="290.608" y2="195.673" gradientUnits="userSpaceOnUse">
<stop stop-color="#4BC79A" stop-opacity="0"/>
<stop offset="1" stop-color="#4BC79A" stop-opacity="0.4"/>
</linearGradient>
<linearGradient id="paint30_linear_8838_152386" x1="282" y1="55.5" x2="282.081" y2="195.634" gradientUnits="userSpaceOnUse">
<stop stop-color="#4BC79A" stop-opacity="0"/>
<stop offset="1" stop-color="#4BC79A" stop-opacity="0.4"/>
</linearGradient>
<linearGradient id="paint31_linear_8838_152386" x1="273" y1="55" x2="273.177" y2="194.304" gradientUnits="userSpaceOnUse">
<stop stop-color="#4BC79A" stop-opacity="0"/>
<stop offset="1" stop-color="#4BC79A" stop-opacity="0.4"/>
</linearGradient>
<linearGradient id="paint32_linear_8838_152386" x1="265" y1="58.5" x2="264.659" y2="191.744" gradientUnits="userSpaceOnUse">
<stop stop-color="#4BC79A" stop-opacity="0"/>
<stop offset="1" stop-color="#4BC79A" stop-opacity="0.4"/>
</linearGradient>
<linearGradient id="paint33_linear_8838_152386" x1="256.137" y1="46.024" x2="256.137" y2="188.042" gradientUnits="userSpaceOnUse">
<stop stop-color="#4BC79A" stop-opacity="0"/>
<stop offset="1" stop-color="#4BC79A" stop-opacity="0.4"/>
</linearGradient>
<linearGradient id="paint34_linear_8838_152386" x1="196" y1="75.5" x2="196.018" y2="188.154" gradientUnits="userSpaceOnUse">
<stop stop-color="#4BC79A" stop-opacity="0"/>
<stop offset="1" stop-color="#4BC79A" stop-opacity="0.4"/>
</linearGradient>
<linearGradient id="paint35_linear_8838_152386" x1="205" y1="67.5" x2="204.76" y2="191.838" gradientUnits="userSpaceOnUse">
<stop stop-color="#4BC79A" stop-opacity="0"/>
<stop offset="1" stop-color="#4BC79A" stop-opacity="0.4"/>
</linearGradient>
<linearGradient id="paint36_linear_8838_152386" x1="213" y1="65.5" x2="213.141" y2="194.493" gradientUnits="userSpaceOnUse">
<stop stop-color="#4BC79A" stop-opacity="0"/>
<stop offset="1" stop-color="#4BC79A" stop-opacity="0.4"/>
</linearGradient>
<linearGradient id="paint37_linear_8838_152386" x1="222" y1="61" x2="221.864" y2="195.675" gradientUnits="userSpaceOnUse">
<stop stop-color="#4BC79A" stop-opacity="0"/>
<stop offset="1" stop-color="#4BC79A" stop-opacity="0.4"/>
</linearGradient>
<linearGradient id="paint38_linear_8838_152386" x1="231" y1="54.5" x2="230.565" y2="195.61" gradientUnits="userSpaceOnUse">
<stop stop-color="#4BC79A" stop-opacity="0"/>
<stop offset="1" stop-color="#4BC79A" stop-opacity="0.4"/>
</linearGradient>
<linearGradient id="paint39_linear_8838_152386" x1="239" y1="55" x2="238.768" y2="194.323" gradientUnits="userSpaceOnUse">
<stop stop-color="#4BC79A" stop-opacity="0"/>
<stop offset="1" stop-color="#4BC79A" stop-opacity="0.4"/>
</linearGradient>
<linearGradient id="paint40_linear_8838_152386" x1="248" y1="58.5" x2="247.993" y2="184.5" gradientUnits="userSpaceOnUse">
<stop stop-color="#4BC79A" stop-opacity="0"/>
<stop offset="1" stop-color="#4BC79A" stop-opacity="0.4"/>
</linearGradient>
<clipPath id="clip0_8838_152386">
<rect width="512" height="512" fill="white"/>
</clipPath>
</defs>
</svg>
