<svg width="640" height="336" viewBox="0 0 640 336" fill="none" xmlns="http://www.w3.org/2000/svg">
<g clip-path="url(#clip0_2505_32735)">
<rect width="640" height="336" fill="url(#paint0_linear_2505_32735)"/>
<g clip-path="url(#clip1_2505_32735)">
<path d="M704.021 -15.5115H-63.9795V416.489H704.021V-15.5115Z" fill="url(#paint1_linear_2505_32735)"/>
<path d="M790.656 70.541L-92.1533 246.944L-30.5163 555.407L852.293 379.004L790.656 70.541Z" fill="#0C1375"/>
<path d="M-67.0908 263.802L707.129 109.098" stroke="url(#paint2_linear_2505_32735)" stroke-width="0.4"/>
<path d="M-67.0908 274.733L707.129 120.029" stroke="url(#paint3_linear_2505_32735)" stroke-width="0.4"/>
<path d="M-67.0908 282.021L707.129 127.316" stroke="url(#paint4_linear_2505_32735)" stroke-width="0.4"/>
<path d="M-67.0908 289.311L707.129 134.607" stroke="url(#paint5_linear_2505_32735)" stroke-width="0.4"/>
<path d="M-67.0908 296.599L707.129 141.894" stroke="url(#paint6_linear_2505_32735)" stroke-width="0.4"/>
<path d="M-67.0908 256.514L707.129 101.81" stroke="url(#paint7_linear_2505_32735)" stroke-width="0.4"/>
<path d="M-67.0908 267.446L707.129 112.741" stroke="url(#paint8_linear_2505_32735)" stroke-width="0.4"/>
<path d="M-67.0908 278.377L707.129 123.673" stroke="url(#paint9_linear_2505_32735)" stroke-width="0.4"/>
<path d="M-67.0908 260.158L707.129 105.454" stroke="url(#paint10_linear_2505_32735)" stroke-width="0.4"/>
<path d="M-67.0908 271.089L707.129 116.385" stroke="url(#paint11_linear_2505_32735)" stroke-width="0.4"/>
<path d="M-67.0908 285.668L707.129 130.963" stroke="url(#paint12_linear_2505_32735)" stroke-width="0.4"/>
<path d="M-67.0908 292.955L707.129 138.251" stroke="url(#paint13_linear_2505_32735)" stroke-width="0.4"/>
<path d="M-67.0908 300.243L707.129 145.538" stroke="url(#paint14_linear_2505_32735)" stroke-width="0.4"/>
<path d="M-67.0908 303.886L707.129 149.182" stroke="url(#paint15_linear_2505_32735)" stroke-width="0.4"/>
<path d="M-67.0908 311.174L707.129 156.469" stroke="url(#paint16_linear_2505_32735)" stroke-width="0.4"/>
<path d="M-67.0908 318.464L707.129 163.76" stroke="url(#paint17_linear_2505_32735)" stroke-width="0.4"/>
<path d="M-67.0908 325.752L707.129 171.048" stroke="url(#paint18_linear_2505_32735)" stroke-width="0.4"/>
<path d="M-67.0908 333.039L707.129 178.335" stroke="url(#paint19_linear_2505_32735)" stroke-width="0.4"/>
<path d="M-67.0908 340.33L707.129 185.626" stroke="url(#paint20_linear_2505_32735)" stroke-width="0.4"/>
<path d="M-67.0908 362.193L707.129 207.488" stroke="url(#paint21_linear_2505_32735)" stroke-width="0.4"/>
<path d="M-67.0908 347.618L707.129 192.913" stroke="url(#paint22_linear_2505_32735)" stroke-width="0.4"/>
<path d="M-67.0908 376.771L707.129 222.066" stroke="url(#paint23_linear_2505_32735)" stroke-width="0.4"/>
<path d="M-67.0908 354.905L707.129 200.201" stroke="url(#paint24_linear_2505_32735)" stroke-width="0.4"/>
<path d="M-67.0908 391.346L707.129 236.641" stroke="url(#paint25_linear_2505_32735)" stroke-width="0.4"/>
<path d="M-67.0908 307.53L707.129 152.826" stroke="url(#paint26_linear_2505_32735)" stroke-width="0.4"/>
<path d="M-67.0908 314.821L707.129 160.116" stroke="url(#paint27_linear_2505_32735)" stroke-width="0.4"/>
<path d="M-67.0908 322.108L707.129 167.404" stroke="url(#paint28_linear_2505_32735)" stroke-width="0.4"/>
<path d="M-67.0908 329.396L707.129 174.691" stroke="url(#paint29_linear_2505_32735)" stroke-width="0.4"/>
<path d="M-67.0908 336.686L707.129 181.982" stroke="url(#paint30_linear_2505_32735)" stroke-width="0.4"/>
<path d="M-67.0908 358.549L707.129 203.844" stroke="url(#paint31_linear_2505_32735)" stroke-width="0.4"/>
<path d="M-67.0908 343.974L707.129 189.269" stroke="url(#paint32_linear_2505_32735)" stroke-width="0.4"/>
<path d="M-67.0908 369.483L707.129 214.779" stroke="url(#paint33_linear_2505_32735)" stroke-width="0.4"/>
<path d="M-67.0908 351.261L707.129 196.557" stroke="url(#paint34_linear_2505_32735)" stroke-width="0.4"/>
<path d="M-67.0908 384.058L707.129 229.354" stroke="url(#paint35_linear_2505_32735)" stroke-width="0.4"/>
<path d="M-67.0908 365.839L707.129 211.135" stroke="url(#paint36_linear_2505_32735)" stroke-width="0.4"/>
<path d="M-67.0908 398.636L707.129 243.932" stroke="url(#paint37_linear_2505_32735)" stroke-width="0.4"/>
<path d="M-67.0908 373.127L707.129 218.423" stroke="url(#paint38_linear_2505_32735)" stroke-width="0.4"/>
<path d="M-67.0908 405.924L707.129 251.219" stroke="url(#paint39_linear_2505_32735)" stroke-width="0.4"/>
<path d="M-67.0908 380.414L707.129 225.71" stroke="url(#paint40_linear_2505_32735)" stroke-width="0.4"/>
<path d="M-67.0908 413.211L707.129 258.507" stroke="url(#paint41_linear_2505_32735)" stroke-width="0.4"/>
<path d="M-67.0908 387.702L707.129 232.998" stroke="url(#paint42_linear_2505_32735)" stroke-width="0.4"/>
<path d="M-67.0908 420.499L707.129 265.794" stroke="url(#paint43_linear_2505_32735)" stroke-width="0.4"/>
<path d="M-67.0908 394.993L707.129 240.288" stroke="url(#paint44_linear_2505_32735)" stroke-width="0.4"/>
<path d="M-67.0908 427.789L707.129 273.085" stroke="url(#paint45_linear_2505_32735)" stroke-width="0.4"/>
<path d="M-67.0908 402.28L707.129 247.576" stroke="url(#paint46_linear_2505_32735)" stroke-width="0.4"/>
<path d="M-67.0908 435.077L707.129 280.373" stroke="url(#paint47_linear_2505_32735)" stroke-width="0.4"/>
<path d="M-67.0908 409.568L707.129 254.863" stroke="url(#paint48_linear_2505_32735)" stroke-width="0.4"/>
<path d="M-67.0908 442.364L707.129 287.66" stroke="url(#paint49_linear_2505_32735)" stroke-width="0.4"/>
<path d="M-67.0908 416.855L707.129 262.151" stroke="url(#paint50_linear_2505_32735)" stroke-width="0.4"/>
<path d="M-67.0908 449.652L707.129 294.948" stroke="url(#paint51_linear_2505_32735)" stroke-width="0.4"/>
<path d="M-67.0908 424.146L707.129 269.441" stroke="url(#paint52_linear_2505_32735)" stroke-width="0.4"/>
<path d="M-67.0908 456.943L707.129 302.238" stroke="url(#paint53_linear_2505_32735)" stroke-width="0.4"/>
<path d="M-67.0908 431.433L707.129 276.729" stroke="url(#paint54_linear_2505_32735)" stroke-width="0.4"/>
<path d="M-67.0908 464.23L707.129 309.526" stroke="url(#paint55_linear_2505_32735)" stroke-width="0.4"/>
<path d="M-67.0908 438.721L707.129 284.016" stroke="url(#paint56_linear_2505_32735)" stroke-width="0.4"/>
<path d="M-67.0908 471.518L707.129 316.813" stroke="url(#paint57_linear_2505_32735)" stroke-width="0.4"/>
<path d="M-67.0908 446.008L707.129 291.304" stroke="url(#paint58_linear_2505_32735)" stroke-width="0.4"/>
<path d="M-67.0908 478.805L707.129 324.101" stroke="url(#paint59_linear_2505_32735)" stroke-width="0.4"/>
<path d="M-67.0908 453.299L707.129 298.594" stroke="url(#paint60_linear_2505_32735)" stroke-width="0.4"/>
<path d="M-67.0908 460.586L707.129 305.882" stroke="url(#paint61_linear_2505_32735)" stroke-width="0.4"/>
<path d="M-67.0908 467.874L707.129 313.169" stroke="url(#paint62_linear_2505_32735)" stroke-width="0.4"/>
<path d="M-67.0908 475.161L707.129 320.457" stroke="url(#paint63_linear_2505_32735)" stroke-width="0.4"/>
<path d="M-67.0908 482.452L707.129 327.748" stroke="url(#paint64_linear_2505_32735)" stroke-width="0.4"/>
<path d="M-67.0908 486.096L707.129 331.391" stroke="url(#paint65_linear_2505_32735)" stroke-width="0.4"/>
<path d="M-67.0908 489.739L707.129 335.035" stroke="url(#paint66_linear_2505_32735)" stroke-width="0.4"/>
<path d="M-67.0908 241.936L707.129 87.2319" stroke="url(#paint67_linear_2505_32735)" stroke-width="0.4"/>
<path d="M-67.0908 252.868L707.129 98.1632" stroke="url(#paint68_linear_2505_32735)" stroke-width="0.4"/>
<path d="M-67.0908 245.58L707.129 90.8757" stroke="url(#paint69_linear_2505_32735)" stroke-width="0.4"/>
<path d="M-67.0908 249.224L707.129 94.5194" stroke="url(#paint70_linear_2505_32735)" stroke-width="0.4"/>
<path d="M707.129 65.3867L-67.0902 220.091" stroke="url(#paint71_linear_2505_32735)" stroke-width="0.4"/>
<path d="M707.129 54.4555L-67.0902 209.16" stroke="url(#paint72_linear_2505_32735)" stroke-width="0.4"/>
<path d="M707.129 47.168L-67.0902 201.872" stroke="url(#paint73_linear_2505_32735)" stroke-width="0.4"/>
<path d="M707.129 39.8774L-67.0902 194.582" stroke="url(#paint74_linear_2505_32735)" stroke-width="0.4"/>
<path d="M707.129 32.5898L-67.0902 187.294" stroke="url(#paint75_linear_2505_32735)" stroke-width="0.4"/>
<path d="M707.129 72.6743L-67.0902 227.379" stroke="url(#paint76_linear_2505_32735)" stroke-width="0.4"/>
<path d="M707.129 61.743L-67.0902 216.447" stroke="url(#paint77_linear_2505_32735)" stroke-width="0.4"/>
<path d="M707.129 50.8117L-67.0902 205.516" stroke="url(#paint78_linear_2505_32735)" stroke-width="0.4"/>
<path d="M707.129 69.0305L-67.0902 223.735" stroke="url(#paint79_linear_2505_32735)" stroke-width="0.4"/>
<path d="M707.129 58.0992L-67.0902 212.804" stroke="url(#paint80_linear_2505_32735)" stroke-width="0.4"/>
<path d="M707.129 43.5211L-67.0902 198.225" stroke="url(#paint81_linear_2505_32735)" stroke-width="0.4"/>
<path d="M707.129 36.2336L-67.0902 190.938" stroke="url(#paint82_linear_2505_32735)" stroke-width="0.4"/>
<path d="M707.129 28.9461L-67.0902 183.65" stroke="url(#paint83_linear_2505_32735)" stroke-width="0.4"/>
<path d="M707.129 25.3024L-67.0902 180.007" stroke="url(#paint84_linear_2505_32735)" stroke-width="0.4"/>
<path d="M707.129 18.0149L-67.0902 172.719" stroke="url(#paint85_linear_2505_32735)" stroke-width="0.4"/>
<path d="M707.129 10.7242L-67.0902 165.429" stroke="url(#paint86_linear_2505_32735)" stroke-width="0.4"/>
<path d="M707.129 3.43674L-67.0902 158.141" stroke="url(#paint87_linear_2505_32735)" stroke-width="0.4"/>
<path d="M707.129 -3.85077L-67.0902 150.854" stroke="url(#paint88_linear_2505_32735)" stroke-width="0.4"/>
<path d="M707.129 -11.1414L-67.0902 143.563" stroke="url(#paint89_linear_2505_32735)" stroke-width="0.4"/>
<path d="M707.129 -33.0039L-67.0902 121.7" stroke="url(#paint90_linear_2505_32735)" stroke-width="0.4"/>
<path d="M707.129 -18.4289L-67.0902 136.275" stroke="url(#paint91_linear_2505_32735)" stroke-width="0.4"/>
<path d="M707.129 -47.582L-67.0902 107.122" stroke="url(#paint92_linear_2505_32735)" stroke-width="0.4"/>
<path d="M707.129 -25.7164L-67.0902 128.988" stroke="url(#paint93_linear_2505_32735)" stroke-width="0.4"/>
<path d="M707.129 -62.157L-67.0902 92.5473" stroke="url(#paint94_linear_2505_32735)" stroke-width="0.4"/>
<path d="M707.129 21.6586L-67.0902 176.363" stroke="url(#paint95_linear_2505_32735)" stroke-width="0.4"/>
<path d="M707.129 14.368L-67.0902 169.072" stroke="url(#paint96_linear_2505_32735)" stroke-width="0.4"/>
<path d="M707.129 7.08049L-67.0902 161.785" stroke="url(#paint97_linear_2505_32735)" stroke-width="0.4"/>
<path d="M707.129 -0.207016L-67.0902 154.497" stroke="url(#paint98_linear_2505_32735)" stroke-width="0.4"/>
<path d="M707.129 -7.49763L-67.0902 147.207" stroke="url(#paint99_linear_2505_32735)" stroke-width="0.4"/>
<path d="M707.129 -29.3601L-67.0902 125.344" stroke="url(#paint100_linear_2505_32735)" stroke-width="0.4"/>
<path d="M707.129 -14.7851L-67.0902 139.919" stroke="url(#paint101_linear_2505_32735)" stroke-width="0.4"/>
<path d="M707.129 -40.2945L-67.0902 114.41" stroke="url(#paint102_linear_2505_32735)" stroke-width="0.4"/>
<path d="M707.129 -22.0726L-67.0902 132.632" stroke="url(#paint103_linear_2505_32735)" stroke-width="0.4"/>
<path d="M707.129 -54.8695L-67.0902 99.8348" stroke="url(#paint104_linear_2505_32735)" stroke-width="0.4"/>
<path d="M707.129 -36.6508L-67.0902 118.054" stroke="url(#paint105_linear_2505_32735)" stroke-width="0.4"/>
<path d="M707.129 -69.4476L-67.0902 85.2567" stroke="url(#paint106_linear_2505_32735)" stroke-width="0.4"/>
<path d="M707.129 -43.9383L-67.0902 110.766" stroke="url(#paint107_linear_2505_32735)" stroke-width="0.4"/>
<path d="M707.129 -76.7351L-67.0902 77.9692" stroke="url(#paint108_linear_2505_32735)" stroke-width="0.4"/>
<path d="M707.129 -51.2258L-67.0902 103.479" stroke="url(#paint109_linear_2505_32735)" stroke-width="0.4"/>
<path d="M707.129 -84.0226L-67.0902 70.6817" stroke="url(#paint110_linear_2505_32735)" stroke-width="0.4"/>
<path d="M707.129 -58.5133L-67.0902 96.1911" stroke="url(#paint111_linear_2505_32735)" stroke-width="0.4"/>
<path d="M707.129 -91.3102L-67.0902 63.3942" stroke="url(#paint112_linear_2505_32735)" stroke-width="0.4"/>
<path d="M707.129 -65.8039L-67.0902 88.9004" stroke="url(#paint113_linear_2505_32735)" stroke-width="0.4"/>
<path d="M707.129 -98.6008L-67.0902 56.1036" stroke="url(#paint114_linear_2505_32735)" stroke-width="0.4"/>
<path d="M707.129 -73.0914L-67.0902 81.6129" stroke="url(#paint115_linear_2505_32735)" stroke-width="0.4"/>
<path d="M707.129 -105.888L-67.0902 48.8161" stroke="url(#paint116_linear_2505_32735)" stroke-width="0.4"/>
<path d="M707.129 -80.3789L-67.0902 74.3254" stroke="url(#paint117_linear_2505_32735)" stroke-width="0.4"/>
<path d="M707.129 -113.176L-67.0902 41.5286" stroke="url(#paint118_linear_2505_32735)" stroke-width="0.4"/>
<path d="M707.129 -87.6664L-67.0902 67.038" stroke="url(#paint119_linear_2505_32735)" stroke-width="0.4"/>
<path d="M707.129 -120.463L-67.0902 34.2411" stroke="url(#paint120_linear_2505_32735)" stroke-width="0.4"/>
<path d="M707.129 -94.957L-67.0902 59.7473" stroke="url(#paint121_linear_2505_32735)" stroke-width="0.4"/>
<path d="M707.129 -127.754L-67.0902 26.9504" stroke="url(#paint122_linear_2505_32735)" stroke-width="0.4"/>
<path d="M707.129 -102.245L-67.0902 52.4598" stroke="url(#paint123_linear_2505_32735)" stroke-width="0.4"/>
<path d="M707.129 -135.041L-67.0902 19.663" stroke="url(#paint124_linear_2505_32735)" stroke-width="0.4"/>
<path d="M707.129 -109.532L-67.0902 45.1723" stroke="url(#paint125_linear_2505_32735)" stroke-width="0.4"/>
<path d="M707.129 -142.329L-67.0902 12.3754" stroke="url(#paint126_linear_2505_32735)" stroke-width="0.4"/>
<path d="M707.129 -116.82L-67.0902 37.8848" stroke="url(#paint127_linear_2505_32735)" stroke-width="0.4"/>
<path d="M707.129 -149.616L-67.0902 5.08794" stroke="url(#paint128_linear_2505_32735)" stroke-width="0.4"/>
<path d="M707.129 -124.11L-67.0902 30.5942" stroke="url(#paint129_linear_2505_32735)" stroke-width="0.4"/>
<path d="M707.129 -131.398L-67.0902 23.3067" stroke="url(#paint130_linear_2505_32735)" stroke-width="0.4"/>
<path d="M707.129 -138.685L-67.0902 16.0192" stroke="url(#paint131_linear_2505_32735)" stroke-width="0.4"/>
<path d="M707.129 -145.973L-67.0902 8.73168" stroke="url(#paint132_linear_2505_32735)" stroke-width="0.4"/>
<path d="M707.129 -153.263L-67.0902 1.44106" stroke="url(#paint133_linear_2505_32735)" stroke-width="0.4"/>
<path d="M707.129 87.2524L-67.0902 241.957" stroke="url(#paint134_linear_2505_32735)" stroke-width="0.4"/>
<path d="M707.129 76.3211L-67.0902 231.025" stroke="url(#paint135_linear_2505_32735)" stroke-width="0.4"/>
<path d="M707.129 83.6086L-67.0902 238.313" stroke="url(#paint136_linear_2505_32735)" stroke-width="0.4"/>
<path d="M707.129 79.9648L-67.0902 234.669" stroke="url(#paint137_linear_2505_32735)" stroke-width="0.4"/>
<path d="M421.985 217.873L414.469 208.001V217.873H409.023V195.517H414.469V205.326L421.921 195.517H428.322L419.66 206.472L428.641 217.873H421.985Z" fill="#DCE3EF"/>
<path d="M389.77 217.873L385.12 209.434H383.815V217.873H378.369V195.517H387.509C389.271 195.517 390.768 195.825 391.999 196.44C393.252 197.056 394.186 197.905 394.802 198.988C395.417 200.05 395.725 201.239 395.725 202.555C395.725 204.041 395.301 205.368 394.451 206.536C393.623 207.704 392.392 208.532 390.757 209.02L395.916 217.873H389.77ZM383.815 205.58H387.19C388.188 205.58 388.931 205.336 389.42 204.848C389.929 204.36 390.184 203.67 390.184 202.778C390.184 201.929 389.929 201.26 389.42 200.772C388.931 200.283 388.188 200.039 387.19 200.039H383.815V205.58Z" fill="#DCE3EF"/>
<path d="M354.103 218.092C352.002 218.092 350.07 217.604 348.309 216.627C346.568 215.651 345.178 214.293 344.138 212.553C343.12 210.791 342.61 208.817 342.61 206.631C342.61 204.445 343.12 202.482 344.138 200.742C345.178 199.002 346.568 197.643 348.309 196.667C350.07 195.691 352.002 195.203 354.103 195.203C356.204 195.203 358.124 195.691 359.865 196.667C361.626 197.643 363.006 199.002 364.003 200.742C365.022 202.482 365.531 204.445 365.531 206.631C365.531 208.817 365.022 210.791 364.003 212.553C362.984 214.293 361.605 215.651 359.865 216.627C358.124 217.604 356.204 218.092 354.103 218.092ZM354.103 213.126C355.885 213.126 357.307 212.531 358.368 211.343C359.451 210.154 359.992 208.584 359.992 206.631C359.992 204.658 359.451 203.087 358.368 201.92C357.307 200.731 355.885 200.137 354.103 200.137C352.299 200.137 350.855 200.721 349.773 201.888C348.712 203.055 348.181 204.636 348.181 206.631C348.181 208.605 348.712 210.186 349.773 211.375C350.855 212.542 352.299 213.126 354.103 213.126Z" fill="#DCE3EF"/>
<path d="M331.043 195.517L325.215 217.873H318.623L315.056 203.16L311.362 217.873H304.769L299.101 195.517H304.929L308.145 211.791L312.126 195.517H318.113L321.935 211.791L325.183 195.517H331.043Z" fill="#DCE3EF"/>
<path d="M287.798 195.517V199.88H281.874V217.873H276.428V199.88H270.505V195.517H287.798Z" fill="#DCE3EF"/>
<path d="M250.256 199.88V204.402H257.549V208.606H250.256V213.51H258.504V217.873H244.81V195.517H258.504V199.88H250.256Z" fill="#DCE3EF"/>
<path d="M231.141 217.873H225.695L216.587 204.084V217.873H211.141V195.517H216.587L225.695 209.37V195.517H231.141V217.873Z" fill="#DCE3EF"/>
<path d="M361.188 96.5064L387.231 96.5065L400.918 145.793H401.301L415.049 96.5065H441.037L415.616 173.158L386.499 173.161L361.188 96.5064Z" fill="#DCE3EF"/>
<rect width="67.0699" height="19.1648" transform="matrix(0.980611 -0.195962 0.19592 0.98062 283.974 100.073)" fill="#DCE3EF"/>
<rect x="287.765" y="125.255" width="67.0696" height="19.1635" fill="#DCE3EF"/>
<rect x="287.765" y="154.001" width="67.0696" height="19.1635" fill="#DCE3EF"/>
<path d="M238.226 94.9096C227.638 94.9096 217.484 99.1158 209.997 106.603C202.51 114.09 198.304 124.245 198.304 134.834C198.304 145.422 202.51 155.577 209.997 163.064C217.484 170.551 227.638 174.758 238.226 174.758C243.469 174.758 248.661 173.725 253.504 171.719C258.348 169.712 262.749 166.771 266.456 163.064C270.163 159.357 273.104 154.956 275.11 150.112C277.117 145.268 278.149 140.077 278.149 134.834C278.149 129.591 277.117 124.399 275.11 119.555C273.104 114.712 270.163 110.31 266.456 106.603C262.749 102.896 258.348 99.955 253.504 97.9486C248.661 95.9423 243.469 94.9096 238.226 94.9096ZM238.226 149.994C236.236 149.994 234.265 149.602 232.426 148.84C230.587 148.078 228.917 146.961 227.509 145.553C226.102 144.145 224.986 142.474 224.225 140.635C223.464 138.795 223.073 136.824 223.074 134.834C223.073 132.843 223.464 130.873 224.225 129.034C224.987 127.195 226.103 125.524 227.51 124.117C228.917 122.709 230.588 121.593 232.427 120.832C234.266 120.071 236.236 119.68 238.226 119.681C240.217 119.68 242.188 120.071 244.027 120.832C245.867 121.593 247.538 122.709 248.946 124.116C250.354 125.523 251.471 127.194 252.233 129.033C252.995 130.872 253.386 132.843 253.386 134.834C253.386 138.854 251.79 142.711 248.946 145.554C246.103 148.397 242.247 149.994 238.226 149.994Z" fill="#DCE3EF"/>
<path d="M239.619 275.5V268.026H242.124C242.957 268.026 243.598 268.233 244.048 268.648C244.498 269.062 244.723 269.635 244.723 270.367C244.723 271.09 244.498 271.659 244.048 272.074C243.598 272.485 242.957 272.69 242.124 272.69H240.745V275.5H239.619ZM240.745 271.716H242.124C242.601 271.716 242.963 271.593 243.209 271.346C243.456 271.1 243.579 270.773 243.579 270.367C243.579 269.956 243.456 269.624 243.209 269.369C242.963 269.115 242.601 268.988 242.124 268.988H240.745V271.716ZM248.406 275.653C247.894 275.653 247.434 275.541 247.028 275.318C246.625 275.095 246.306 274.763 246.071 274.321C245.837 273.879 245.719 273.333 245.719 272.684C245.719 272.023 245.837 271.474 246.071 271.035C246.306 270.594 246.625 270.261 247.028 270.038C247.434 269.815 247.894 269.704 248.406 269.704C248.911 269.704 249.364 269.815 249.767 270.038C250.17 270.261 250.487 270.594 250.718 271.035C250.952 271.474 251.07 272.023 251.07 272.684C251.07 273.333 250.952 273.879 250.718 274.321C250.487 274.763 250.17 275.095 249.767 275.318C249.364 275.541 248.911 275.653 248.406 275.653ZM248.371 274.679C248.696 274.679 248.975 274.6 249.21 274.444C249.449 274.288 249.63 274.061 249.756 273.763C249.885 273.462 249.949 273.103 249.949 272.684C249.949 272.043 249.818 271.546 249.556 271.194C249.298 270.842 248.924 270.666 248.436 270.666C248.107 270.666 247.824 270.746 247.585 270.906C247.35 271.063 247.168 271.292 247.039 271.593C246.914 271.89 246.852 272.254 246.852 272.684C246.852 273.314 246.983 273.805 247.245 274.157C247.507 274.505 247.882 274.679 248.371 274.679ZM251.829 269.856H252.99L254.334 274.385H254.211L255.507 270.144H256.475L257.766 274.397H257.648L258.992 269.856H260.107L258.253 275.5H257.162L255.883 271.511H256.053L254.791 275.5H253.7L251.829 269.856ZM263.477 275.653C262.992 275.653 262.554 275.527 262.163 275.277C261.772 275.027 261.461 274.679 261.23 274.233C261.004 273.787 260.89 273.271 260.89 272.684C260.89 272.062 261.004 271.53 261.23 271.088C261.457 270.642 261.766 270.3 262.157 270.062C262.548 269.823 262.988 269.704 263.477 269.704C263.915 269.704 264.291 269.794 264.604 269.974C264.917 270.15 265.169 270.388 265.361 270.689C265.552 270.987 265.683 271.325 265.754 271.704C265.828 272.084 265.842 272.475 265.795 272.878H261.782V272.232H265.032L264.762 272.408C264.774 272.197 264.762 271.986 264.727 271.775C264.696 271.563 264.633 271.37 264.539 271.194C264.445 271.014 264.312 270.871 264.14 270.766C263.972 270.656 263.757 270.601 263.495 270.601C263.166 270.601 262.891 270.683 262.668 270.848C262.449 271.012 262.283 271.233 262.169 271.511C262.056 271.784 261.999 272.086 261.999 272.414V272.866C261.999 273.23 262.054 273.552 262.163 273.834C262.273 274.115 262.435 274.338 262.65 274.503C262.869 274.663 263.145 274.743 263.477 274.743C263.802 274.743 264.07 274.667 264.281 274.514C264.496 274.362 264.629 274.133 264.68 273.828H265.818C265.76 274.196 265.625 274.516 265.413 274.79C265.202 275.064 264.93 275.277 264.598 275.43C264.269 275.578 263.896 275.653 263.477 275.653ZM267.561 275.5V269.839H268.675V275.5H267.561ZM268.37 272.977C268.37 272.254 268.445 271.653 268.593 271.176C268.746 270.695 268.957 270.337 269.227 270.103C269.501 269.868 269.821 269.751 270.189 269.751C270.298 269.751 270.4 269.759 270.494 269.774C270.592 269.79 270.688 269.811 270.781 269.839L270.74 270.947C270.635 270.92 270.519 270.897 270.394 270.877C270.273 270.854 270.162 270.842 270.06 270.842C269.739 270.842 269.477 270.928 269.274 271.1C269.07 271.268 268.92 271.513 268.822 271.833C268.724 272.15 268.675 272.531 268.675 272.977H268.37ZM273.973 275.653C273.488 275.653 273.05 275.527 272.659 275.277C272.268 275.027 271.957 274.679 271.726 274.233C271.499 273.787 271.386 273.271 271.386 272.684C271.386 272.062 271.499 271.53 271.726 271.088C271.953 270.642 272.262 270.3 272.653 270.062C273.044 269.823 273.484 269.704 273.973 269.704C274.411 269.704 274.787 269.794 275.1 269.974C275.412 270.15 275.665 270.388 275.856 270.689C276.048 270.987 276.179 271.325 276.249 271.704C276.324 272.084 276.337 272.475 276.291 272.878H272.278V272.232H275.528L275.258 272.408C275.27 272.197 275.258 271.986 275.223 271.775C275.192 271.563 275.129 271.37 275.035 271.194C274.941 271.014 274.808 270.871 274.636 270.766C274.468 270.656 274.253 270.601 273.991 270.601C273.662 270.601 273.387 270.683 273.164 270.848C272.945 271.012 272.778 271.233 272.665 271.511C272.552 271.784 272.495 272.086 272.495 272.414V272.866C272.495 273.23 272.55 273.552 272.659 273.834C272.769 274.115 272.931 274.338 273.146 274.503C273.365 274.663 273.641 274.743 273.973 274.743C274.298 274.743 274.566 274.667 274.777 274.514C274.992 274.362 275.125 274.133 275.176 273.828H276.314C276.255 274.196 276.12 274.516 275.909 274.79C275.698 275.064 275.426 275.277 275.094 275.43C274.765 275.578 274.392 275.653 273.973 275.653ZM280.104 275.653C279.642 275.653 279.218 275.529 278.831 275.283C278.444 275.033 278.135 274.685 277.904 274.239C277.677 273.789 277.564 273.261 277.564 272.655C277.564 272.052 277.675 271.53 277.898 271.088C278.125 270.646 278.424 270.306 278.796 270.067C279.167 269.825 279.58 269.704 280.034 269.704C280.448 269.704 280.81 269.805 281.119 270.009C281.428 270.208 281.666 270.5 281.835 270.883C282.007 271.266 282.093 271.734 282.093 272.285H281.706C281.706 271.945 281.637 271.657 281.5 271.423C281.363 271.184 281.185 271.004 280.966 270.883C280.747 270.762 280.513 270.701 280.262 270.701C279.969 270.701 279.703 270.781 279.464 270.942C279.23 271.098 279.042 271.323 278.901 271.616C278.764 271.906 278.696 272.252 278.696 272.655C278.696 273.061 278.764 273.415 278.901 273.717C279.042 274.014 279.23 274.243 279.464 274.403C279.703 274.563 279.967 274.643 280.256 274.643C280.495 274.643 280.724 274.581 280.943 274.456C281.166 274.327 281.348 274.143 281.488 273.904C281.633 273.666 281.706 273.382 281.706 273.054H282.093C282.093 273.617 282.003 274.092 281.823 274.479C281.647 274.866 281.408 275.16 281.107 275.359C280.806 275.555 280.472 275.653 280.104 275.653ZM281.899 275.5L281.706 274.145V267.48H282.826V275.5H281.899ZM290.696 275.653C290.328 275.653 289.994 275.555 289.692 275.359C289.395 275.16 289.157 274.866 288.977 274.479C288.801 274.092 288.713 273.617 288.713 273.054H289.094C289.094 273.382 289.164 273.666 289.305 273.904C289.45 274.143 289.634 274.327 289.857 274.456C290.08 274.581 290.312 274.643 290.555 274.643C290.844 274.643 291.104 274.563 291.335 274.403C291.57 274.243 291.756 274.014 291.892 273.717C292.033 273.415 292.104 273.061 292.104 272.655C292.104 272.252 292.035 271.906 291.898 271.616C291.761 271.323 291.576 271.098 291.341 270.942C291.106 270.781 290.84 270.701 290.543 270.701C290.293 270.701 290.056 270.762 289.833 270.883C289.614 271.004 289.436 271.184 289.299 271.423C289.163 271.657 289.094 271.945 289.094 272.285H288.713C288.713 271.734 288.799 271.266 288.971 270.883C289.143 270.5 289.382 270.208 289.687 270.009C289.996 269.805 290.357 269.704 290.772 269.704C291.222 269.704 291.632 269.825 292.004 270.067C292.379 270.306 292.679 270.646 292.902 271.088C293.128 271.53 293.242 272.052 293.242 272.655C293.242 273.261 293.126 273.789 292.896 274.239C292.665 274.685 292.356 275.033 291.969 275.283C291.585 275.529 291.161 275.653 290.696 275.653ZM287.979 275.5V267.48H289.094V274.145L288.736 275.5H287.979ZM294.14 269.856H295.39L297.091 274.526H296.862L298.229 269.856H299.367L297.226 276.585C297.03 277.195 296.778 277.651 296.469 277.952C296.164 278.257 295.781 278.41 295.319 278.41C295.061 278.41 294.813 278.377 294.574 278.31C294.34 278.244 294.099 278.146 293.853 278.017V277.014C294.064 277.162 294.267 277.27 294.463 277.336C294.658 277.403 294.862 277.436 295.073 277.436C295.284 277.436 295.464 277.371 295.613 277.242C295.765 277.117 295.892 276.949 295.994 276.738C296.1 276.531 296.19 276.304 296.264 276.057L296.434 275.5L294.14 269.856Z" fill="#99A0E4"/>
<path d="M329.095 266.899L320.474 261.922C319.895 261.588 319.176 261.588 318.597 261.922L309.976 266.899C309.397 267.233 309.038 267.856 309.038 268.525V278.479C309.038 279.148 309.397 279.771 309.976 280.105L318.597 285.083C318.887 285.25 319.211 285.333 319.536 285.333C319.861 285.333 320.185 285.25 320.474 285.083L329.095 280.105C329.674 279.771 330.034 279.148 330.034 278.479V268.525C330.034 267.856 329.674 267.233 329.095 266.899H329.095ZM319.723 283.781C319.608 283.848 319.464 283.848 319.348 283.781L310.727 278.804C310.612 278.737 310.54 278.613 310.54 278.479V271.294H319.536C320.11 271.294 320.635 271.514 321.028 271.876C321.468 272.28 321.744 272.859 321.744 273.502C321.744 274.145 321.468 274.725 321.028 275.129H322.87C323.111 274.637 323.246 274.085 323.246 273.502C323.246 272.92 323.111 272.368 322.87 271.876C322.77 271.671 322.651 271.476 322.515 271.294C321.839 270.383 320.755 269.792 319.535 269.792H310.54V269.21H319.536C321.095 269.21 322.463 270.046 323.215 271.294C323.327 271.479 323.425 271.674 323.508 271.876C323.714 272.378 323.828 272.927 323.828 273.502C323.828 274.077 323.714 274.627 323.508 275.129H325.1C325.252 274.607 325.33 274.061 325.33 273.502C325.33 271.955 324.728 270.499 323.633 269.405C322.539 268.311 321.083 267.708 319.536 267.708H311.581L319.348 263.223C319.406 263.19 319.471 263.173 319.536 263.173C319.601 263.173 319.665 263.19 319.723 263.223L328.344 268.2C328.46 268.267 328.532 268.391 328.532 268.525V275.71H319.536C318.961 275.71 318.437 275.49 318.044 275.128C317.604 274.724 317.327 274.145 317.327 273.502C317.327 272.859 317.604 272.279 318.044 271.876H316.201C315.961 272.367 315.825 272.919 315.825 273.502C315.825 275.548 317.49 277.212 319.536 277.212H328.532V277.794H319.536C317.169 277.794 315.243 275.869 315.243 273.502C315.243 272.927 315.357 272.378 315.563 271.876H313.971C313.819 272.397 313.74 272.944 313.74 273.502C313.74 275.05 314.343 276.505 315.437 277.599C316.532 278.694 317.987 279.297 319.535 279.297H327.489L319.722 283.781H319.723Z" fill="#12AAFF"/>
<path d="M339.32 267.826C339.537 267.826 339.725 267.869 339.875 267.961C340.025 268.053 340.175 268.227 340.319 268.488L343.184 273.69C343.213 273.748 343.217 273.796 343.203 273.835C343.188 273.874 343.145 273.893 343.077 273.893H341.976C341.879 273.893 341.811 273.854 341.778 273.782L341.164 272.666H337.092L336.493 273.782C336.454 273.859 336.387 273.893 336.295 273.893H335.169C335.092 273.893 335.049 273.874 335.034 273.835C335.02 273.796 335.025 273.748 335.053 273.69L337.899 268.483C338.043 268.223 338.184 268.049 338.324 267.957C338.464 267.865 338.623 267.821 338.807 267.821H339.319V267.826L339.32 267.826ZM337.634 271.656H340.619L339.242 269.116C339.218 269.077 339.189 269.053 339.146 269.053H339.092C339.054 269.053 339.02 269.072 338.996 269.116L337.634 271.656Z" fill="#DCE3EF"/>
<path d="M349.492 267.826C350.159 267.826 350.632 267.976 350.922 268.275C351.212 268.575 351.357 269.019 351.357 269.609V270.101C351.357 270.599 351.255 270.99 351.053 271.28C350.85 271.57 350.522 271.753 350.063 271.835L351.546 273.671C351.575 273.7 351.584 273.743 351.57 273.801C351.56 273.859 351.512 273.888 351.429 273.888H350.314C350.236 273.888 350.188 273.878 350.159 273.864C350.13 273.845 350.101 273.815 350.072 273.777L348.7 271.975H345.899V273.699C345.899 273.825 345.836 273.888 345.71 273.888H344.773C344.638 273.888 344.575 273.825 344.575 273.699V268.086C344.575 267.912 344.662 267.825 344.836 267.825H349.493L349.492 267.826ZM345.903 270.917H349.222C349.516 270.917 349.725 270.855 349.845 270.729C349.966 270.603 350.029 270.41 350.029 270.149V269.787C350.029 269.526 349.966 269.333 349.845 269.208C349.725 269.082 349.516 269.019 349.222 269.019H346.015C345.937 269.019 345.904 269.053 345.904 269.125V270.917H345.903Z" fill="#DCE3EF"/>
<path d="M358.608 267.826C359.202 267.826 359.627 267.947 359.878 268.183C360.13 268.42 360.255 268.777 360.255 269.256V269.672C360.255 270.155 360.072 270.521 359.7 270.773C360.096 271.004 360.299 271.376 360.299 271.889V272.391C360.299 272.623 360.275 272.831 360.222 273.014C360.168 273.198 360.086 273.357 359.966 273.488C359.845 273.618 359.69 273.72 359.492 273.787C359.294 273.855 359.052 273.893 358.763 273.893H353.614C353.44 273.893 353.353 273.806 353.353 273.633V268.087C353.353 267.913 353.44 267.826 353.614 267.826H358.608L358.608 267.826ZM354.681 270.348H358.236C358.526 270.348 358.719 270.304 358.825 270.217C358.931 270.13 358.98 270.005 358.98 269.836V269.541C358.98 269.362 358.931 269.232 358.83 269.145C358.728 269.063 358.564 269.02 358.342 269.02H354.796C354.719 269.02 354.685 269.058 354.685 269.131V270.348H354.68L354.681 270.348ZM354.681 272.579C354.681 272.656 354.72 272.69 354.792 272.69H358.347C358.578 272.69 358.743 272.647 358.839 272.564C358.936 272.483 358.989 272.347 358.989 272.163V271.835C358.989 271.656 358.936 271.521 358.83 271.429C358.724 271.337 358.526 271.289 358.236 271.289H354.681V272.579Z" fill="#DCE3EF"/>
<path d="M363.53 267.826C363.655 267.826 363.718 267.889 363.718 268.014V273.7C363.718 273.826 363.655 273.888 363.53 273.888H362.593C362.458 273.888 362.395 273.826 362.395 273.7V268.014C362.395 267.889 362.463 267.826 362.593 267.826H363.53Z" fill="#DCE3EF"/>
<path d="M372.611 267.826C372.746 267.826 372.809 267.889 372.809 268.014V268.864C372.809 268.999 372.741 269.062 372.611 269.062H369.891V273.699C369.891 273.825 369.828 273.888 369.703 273.888H368.756C368.63 273.888 368.567 273.825 368.567 273.699V269.062H365.848C365.712 269.062 365.65 268.994 365.65 268.864V268.014C365.65 267.889 365.717 267.826 365.848 267.826H372.611Z" fill="#DCE3EF"/>
<path d="M379.465 267.826C380.132 267.826 380.605 267.976 380.895 268.275C381.185 268.575 381.33 269.019 381.33 269.609V270.101C381.33 270.599 381.228 270.99 381.026 271.28C380.823 271.57 380.495 271.753 380.036 271.835L381.518 273.671C381.548 273.7 381.557 273.743 381.543 273.801C381.533 273.859 381.485 273.888 381.402 273.888H380.287C380.209 273.888 380.161 273.878 380.132 273.864C380.103 273.845 380.074 273.815 380.045 273.777L378.673 271.975H375.872V273.699C375.872 273.825 375.809 273.888 375.683 273.888H374.746C374.611 273.888 374.548 273.825 374.548 273.699V268.086C374.548 267.912 374.635 267.825 374.809 267.825H379.466L379.465 267.826ZM375.881 270.917H379.2C379.494 270.917 379.703 270.855 379.823 270.729C379.944 270.603 380.007 270.41 380.007 270.149V269.787C380.007 269.526 379.944 269.333 379.823 269.208C379.703 269.082 379.494 269.019 379.2 269.019H375.993C375.915 269.019 375.882 269.053 375.882 269.125V270.917H375.881Z" fill="#DCE3EF"/>
<path d="M384.339 267.826C384.465 267.826 384.528 267.889 384.528 268.014V271.473C384.528 271.705 384.547 271.898 384.585 272.048C384.624 272.203 384.687 272.323 384.774 272.41C384.861 272.502 384.977 272.565 385.127 272.599C385.276 272.637 385.46 272.656 385.687 272.656H388.087C388.315 272.656 388.498 272.637 388.648 272.599C388.798 272.56 388.914 272.497 389.001 272.41C389.088 272.318 389.151 272.198 389.184 272.048C389.218 271.893 389.237 271.705 389.237 271.473V268.014C389.237 267.889 389.3 267.826 389.426 267.826H390.373C390.499 267.826 390.561 267.889 390.561 268.014V271.604C390.561 272.019 390.518 272.372 390.431 272.666C390.344 272.956 390.204 273.193 390.011 273.376C389.818 273.56 389.567 273.69 389.258 273.772C388.949 273.854 388.577 273.893 388.137 273.893H385.639C385.2 273.893 384.828 273.854 384.524 273.772C384.22 273.69 383.968 273.56 383.775 273.376C383.582 273.193 383.441 272.956 383.349 272.666C383.257 272.376 383.214 272.019 383.214 271.604V268.014C383.214 267.889 383.282 267.826 383.412 267.826H384.34H384.339Z" fill="#DCE3EF"/>
<path d="M394.285 267.826C394.41 267.826 394.521 267.835 394.613 267.85C394.705 267.869 394.787 267.898 394.855 267.952C394.923 268 394.985 268.068 395.044 268.15C395.097 268.232 395.155 268.343 395.212 268.483L397.014 272.642C397.038 272.695 397.077 272.719 397.135 272.719H397.241C397.299 272.719 397.337 272.695 397.362 272.642L399.163 268.483C399.221 268.343 399.28 268.232 399.332 268.15C399.386 268.068 399.448 268 399.521 267.952C399.589 267.903 399.671 267.87 399.757 267.85C399.849 267.831 399.956 267.826 400.081 267.826H401.008C401.308 267.826 401.511 267.894 401.617 268.029C401.723 268.164 401.772 268.396 401.772 268.725V273.7C401.772 273.826 401.704 273.888 401.574 273.888H400.69C400.564 273.888 400.501 273.826 400.501 273.7V269.174C400.501 269.116 400.477 269.087 400.433 269.087H400.356C400.298 269.087 400.26 269.111 400.245 269.155L398.496 273.039C398.429 273.193 398.356 273.329 398.284 273.435C398.211 273.541 398.134 273.628 398.052 273.7C397.97 273.768 397.873 273.821 397.767 273.85C397.661 273.879 397.535 273.893 397.39 273.893H396.974C396.83 273.893 396.704 273.879 396.598 273.85C396.491 273.821 396.394 273.773 396.313 273.7C396.231 273.633 396.148 273.541 396.081 273.435C396.008 273.329 395.936 273.198 395.868 273.039L394.12 269.155C394.101 269.107 394.066 269.087 394.009 269.087H393.931C393.883 269.087 393.863 269.116 393.863 269.174V273.7C393.863 273.826 393.8 273.888 393.675 273.888H392.791C392.656 273.888 392.593 273.826 392.593 273.7V268.725C392.593 268.396 392.646 268.164 392.748 268.029C392.854 267.894 393.057 267.826 393.361 267.826H394.285Z" fill="#DCE3EF"/>
<path d="M338.322 275.686C338.575 275.686 338.791 275.71 338.969 275.758C339.147 275.806 339.292 275.883 339.404 275.988C339.515 276.093 339.596 276.229 339.646 276.395C339.696 276.562 339.721 276.765 339.721 277.005V277.864C339.721 278.104 339.697 278.308 339.646 278.476C339.596 278.645 339.515 278.781 339.404 278.886C339.292 278.991 339.147 279.067 338.969 279.113C338.791 279.16 338.575 279.183 338.322 279.183H336.778C336.525 279.183 336.311 279.16 336.134 279.113C335.957 279.067 335.813 278.991 335.702 278.886C335.59 278.781 335.508 278.645 335.457 278.476C335.406 278.308 335.38 278.104 335.38 277.864V277.005C335.38 276.765 335.406 276.562 335.457 276.395C335.509 276.229 335.59 276.093 335.702 275.988C335.814 275.883 335.957 275.807 336.134 275.758C336.311 275.71 336.525 275.686 336.778 275.686H338.322ZM336.144 277.809C336.144 277.939 336.155 278.048 336.176 278.136C336.198 278.224 336.234 278.294 336.284 278.346C336.334 278.397 336.401 278.434 336.487 278.456C336.571 278.478 336.679 278.488 336.809 278.488H338.293C338.423 278.488 338.53 278.478 338.615 278.456C338.7 278.434 338.768 278.397 338.818 278.346C338.867 278.294 338.903 278.224 338.925 278.136C338.947 278.048 338.958 277.939 338.958 277.809V277.059C338.958 276.929 338.947 276.82 338.925 276.732C338.903 276.644 338.868 276.574 338.818 276.523C338.768 276.471 338.7 276.435 338.615 276.413C338.53 276.391 338.423 276.38 338.293 276.38H336.809C336.679 276.38 336.572 276.391 336.487 276.413C336.402 276.435 336.334 276.471 336.284 276.523C336.234 276.574 336.198 276.644 336.176 276.732C336.155 276.82 336.144 276.93 336.144 277.059V277.809Z" fill="#DCE3EF"/>
<path d="M343.673 275.686C344.056 275.686 344.331 275.773 344.497 275.945C344.664 276.119 344.747 276.375 344.747 276.715V277C344.747 277.287 344.689 277.513 344.572 277.679C344.455 277.846 344.266 277.953 344.003 277.999L344.857 279.058C344.874 279.075 344.878 279.1 344.872 279.133C344.865 279.166 344.839 279.183 344.793 279.183H344.148C344.105 279.183 344.074 279.178 344.058 279.168C344.041 279.158 344.025 279.142 344.008 279.118L343.219 278.079H341.605V279.073C341.605 279.146 341.569 279.183 341.495 279.183H340.955C340.879 279.183 340.84 279.146 340.84 279.073V275.835C340.84 275.736 340.89 275.686 340.99 275.686H343.673H343.673ZM341.604 277.47H343.518C343.688 277.47 343.808 277.433 343.878 277.36C343.948 277.287 343.982 277.175 343.982 277.025V276.815C343.982 276.665 343.948 276.553 343.878 276.48C343.807 276.407 343.687 276.37 343.518 276.37H341.67C341.626 276.37 341.604 276.39 341.604 276.43V277.47Z" fill="#DCE3EF"/>
<path d="M348.889 275.686C349.232 275.686 349.476 275.754 349.621 275.89C349.766 276.027 349.838 276.234 349.838 276.51V276.749C349.838 277.029 349.732 277.241 349.519 277.384C349.749 277.517 349.864 277.731 349.864 278.028V278.318C349.864 278.451 349.849 278.571 349.819 278.678C349.789 278.784 349.74 278.875 349.671 278.95C349.603 279.025 349.512 279.082 349.399 279.122C349.286 279.162 349.146 279.182 348.98 279.182H346.012C345.912 279.182 345.862 279.132 345.862 279.032V275.835C345.862 275.735 345.912 275.685 346.012 275.685H348.89L348.889 275.686ZM348.674 277.14C348.841 277.14 348.954 277.115 349.014 277.064C349.074 277.015 349.104 276.942 349.104 276.845V276.675C349.104 276.571 349.075 276.496 349.017 276.447C348.958 276.399 348.864 276.375 348.734 276.375H346.691C346.648 276.375 346.626 276.397 346.626 276.44V277.14H348.674ZM346.626 277.684V278.429C346.626 278.472 346.648 278.494 346.691 278.494H348.74C348.872 278.494 348.968 278.47 349.025 278.421C349.081 278.373 349.109 278.296 349.109 278.189V277.999C349.109 277.896 349.078 277.818 349.017 277.765C348.955 277.711 348.841 277.685 348.674 277.685H346.626V277.684Z" fill="#DCE3EF"/>
<path d="M351.607 275.686C351.68 275.686 351.717 275.722 351.717 275.796V279.073C351.717 279.146 351.68 279.183 351.607 279.183H351.067C350.99 279.183 350.952 279.146 350.952 279.073V275.796C350.952 275.722 350.99 275.686 351.067 275.686H351.607Z" fill="#DCE3EF"/>
<path d="M356.683 275.686C356.759 275.686 356.798 275.722 356.798 275.796V276.285C356.798 276.362 356.76 276.4 356.683 276.4H355.114V279.073C355.114 279.146 355.077 279.183 355.004 279.183H354.459C354.386 279.183 354.349 279.147 354.349 279.073V276.4H352.78C352.703 276.4 352.665 276.362 352.665 276.285V275.796C352.665 275.722 352.703 275.686 352.78 275.686H356.683Z" fill="#DCE3EF"/>
<path fill-rule="evenodd" clip-rule="evenodd" d="M54.7078 32.5333L53.9286 33.8813C53.9111 33.9115 53.8936 33.9417 53.8762 33.9719L40 57.9778H69.4155L54.7078 32.5333ZM49.8202 44.5963L43.1391 56.1546C46.614 56.0715 49.739 55.6672 52.072 54.4926C52.8159 54.118 53.473 53.668 54.034 53.1274C52.5501 52.1144 51.4813 50.9486 50.7855 49.6449C49.9511 48.0813 49.6885 46.3858 49.8167 44.642C49.8178 44.6268 49.819 44.6115 49.8202 44.5963ZM52.7476 56.1725H66.2632C64.4224 53.1535 62.4272 50.5144 60.1868 48.9416C59.5005 48.4598 58.7994 48.0841 58.0791 47.8277C57.9559 49.7325 57.4836 51.3277 56.6977 52.6486C55.7723 54.2038 54.4485 55.3172 52.8839 56.105C52.8387 56.1278 52.7932 56.1503 52.7476 56.1725ZM61.2738 47.5L54.7182 36.1589C53.0383 39.235 51.8097 42.1655 51.618 44.7733C51.5712 45.4092 51.5867 46.0207 51.6712 46.6074C53.2817 45.8563 54.8291 45.5512 56.3148 45.6399C58.1154 45.7475 59.7485 46.429 61.2246 47.4653C61.241 47.4768 61.2574 47.4884 61.2738 47.5ZM52.3793 48.7952C52.3046 48.6553 52.2356 48.5135 52.172 48.3699C53.6518 47.6312 54.9891 47.3684 56.2079 47.4412C56.236 47.4429 56.264 47.4447 56.292 47.4468C56.2121 49.235 55.7982 50.622 55.157 51.7073C53.8167 50.8132 52.9313 49.8295 52.3793 48.7952Z" fill="#DCE3EF"/>
<path d="M103.298 38.8181C102.822 38.8181 102.422 38.6567 102.099 38.3339C101.776 38.011 101.615 37.6113 101.615 37.1348C101.615 36.6582 101.776 36.2585 102.099 35.9357C102.422 35.6129 102.822 35.4515 103.298 35.4515C103.759 35.4515 104.151 35.6129 104.474 35.9357C104.797 36.2585 104.958 36.6582 104.958 37.1348C104.958 37.6113 104.797 38.011 104.474 38.3339C104.151 38.6567 103.759 38.8181 103.298 38.8181ZM104.589 40.5014V53.207H101.961V40.5014H104.589Z" fill="#DCE3EF"/>
<path d="M89.4232 42.3695C89.869 41.7853 90.4762 41.2934 91.2448 40.8937C92.0135 40.494 92.882 40.2942 93.8505 40.2942C94.9573 40.2942 95.9643 40.5709 96.8713 41.1243C97.7936 41.6624 98.5161 42.4233 99.0388 43.4072C99.5615 44.391 99.8228 45.5209 99.8228 46.7969C99.8228 48.0728 99.5615 49.2181 99.0388 50.2327C98.5161 51.2319 97.7936 52.0159 96.8713 52.5847C95.9643 53.1381 94.9573 53.4148 93.8505 53.4148C92.882 53.4148 92.0212 53.2227 91.2679 52.8383C90.5146 52.4386 89.8997 51.9467 89.4232 51.3626V59.2488H86.7944V40.5017H89.4232V42.3695ZM97.148 46.7969C97.148 45.9206 96.9635 45.1673 96.5945 44.5371C96.241 43.8914 95.7644 43.4072 95.1649 43.0843C94.5807 42.7461 93.9504 42.577 93.274 42.577C92.613 42.577 91.9827 42.7461 91.3832 43.0843C90.799 43.4225 90.3225 43.9145 89.9535 44.5601C89.6 45.2058 89.4232 45.9667 89.4232 46.843C89.4232 47.7192 89.6 48.4879 89.9535 49.1489C90.3225 49.7945 90.799 50.2865 91.3832 50.6247C91.9827 50.9629 92.613 51.132 93.274 51.132C93.9504 51.132 94.5807 50.9629 95.1649 50.6247C95.7644 50.2711 96.241 49.7638 96.5945 49.1028C96.9635 48.4417 97.148 47.6731 97.148 46.7969Z" fill="#DCE3EF"/>
<path d="M70.7505 46.7969C70.7505 45.5209 71.0118 44.391 71.5345 43.4072C72.0725 42.4233 72.7951 41.6624 73.7021 41.1243C74.6244 40.5709 75.639 40.2942 76.7459 40.2942C77.7451 40.2942 78.6136 40.494 79.3515 40.8937C80.1048 41.278 80.7043 41.7623 81.1501 42.3464V40.5017H83.8019V53.2073H81.1501V51.3164C80.7043 51.916 80.0971 52.4156 79.3285 52.8153C78.5598 53.215 77.6836 53.4148 76.6997 53.4148C75.6083 53.4148 74.609 53.1381 73.7021 52.5847C72.7951 52.0159 72.0725 51.2319 71.5345 50.2327C71.0118 49.2181 70.7505 48.0728 70.7505 46.7969ZM81.1501 46.843C81.1501 45.9667 80.9657 45.2058 80.5967 44.5601C80.2431 43.9145 79.7743 43.4225 79.1901 43.0843C78.606 42.7461 77.9757 42.577 77.2993 42.577C76.6229 42.577 75.9926 42.7461 75.4084 43.0843C74.8243 43.4072 74.3477 43.8914 73.9788 44.5371C73.6252 45.1673 73.4484 45.9206 73.4484 46.7969C73.4484 47.6731 73.6252 48.4417 73.9788 49.1028C74.3477 49.7638 74.8243 50.2711 75.4084 50.6247C76.008 50.9629 76.6382 51.132 77.2993 51.132C77.9757 51.132 78.606 50.9629 79.1901 50.6247C79.7743 50.2865 80.2431 49.7945 80.5967 49.1489C80.9657 48.4879 81.1501 47.7192 81.1501 46.843Z" fill="#DCE3EF"/>
<path d="M107.738 40.5478C107.831 39.1181 108.376 38.0036 109.376 37.2042C110.39 36.4048 111.682 36.0051 113.25 36.0051C114.326 36.0051 115.256 36.1973 116.04 36.5816C116.824 36.9659 117.416 37.4886 117.815 38.1496C118.215 38.8106 118.415 39.5562 118.415 40.3864C118.415 41.3395 118.161 42.1542 117.654 42.8306C117.147 43.507 116.539 43.9605 115.832 44.1911V44.2833C116.739 44.5601 117.446 45.0673 117.954 45.8052C118.461 46.5278 118.715 47.4578 118.715 48.5954C118.715 49.5024 118.507 50.3094 118.092 51.0166C117.677 51.7237 117.062 52.2848 116.247 52.6999C115.432 53.0996 114.456 53.2994 113.319 53.2994C111.658 53.2994 110.29 52.8767 109.214 52.0312C108.153 51.1703 107.585 49.9405 107.508 48.3417H110.044C110.106 49.1565 110.421 49.8252 110.99 50.3479C111.559 50.8552 112.327 51.1088 113.296 51.1088C114.233 51.1088 114.956 50.8552 115.463 50.3479C115.97 49.8252 116.224 49.1565 116.224 48.3417C116.224 47.2656 115.878 46.5047 115.186 46.0589C114.51 45.5977 113.465 45.3671 112.05 45.3671H111.451V43.1996H112.074C113.319 43.1842 114.264 42.9767 114.91 42.577C115.571 42.1773 115.901 41.547 115.901 40.6861C115.901 39.9482 115.663 39.3641 115.186 38.9336C114.71 38.4878 114.034 38.2649 113.157 38.2649C112.296 38.2649 111.628 38.4878 111.151 38.9336C110.675 39.3641 110.39 39.9021 110.298 40.5478H107.738Z" fill="#DCE3EF"/>
</g>
</g>
<defs>
<linearGradient id="paint0_linear_2505_32735" x1="336.032" y1="453.658" x2="336.032" y2="-9.99538" gradientUnits="userSpaceOnUse">
<stop stop-color="#1843F5"/>
<stop stop-color="#1928FF"/>
<stop offset="0.4" stop-color="#0B1375"/>
<stop offset="0.586359" stop-color="#080D57"/>
<stop offset="1" stop-color="#030412"/>
</linearGradient>
<linearGradient id="paint1_linear_2505_32735" x1="767.741" y1="140.342" x2="-79.4945" y2="421.662" gradientUnits="userSpaceOnUse">
<stop offset="0.0205794" stop-color="#080D57"/>
<stop offset="0.564883" stop-color="#0B1375"/>
<stop offset="1" stop-color="#1843F5"/>
<stop offset="1" stop-color="#1928FF"/>
</linearGradient>
<linearGradient id="paint2_linear_2505_32735" x1="-78.8309" y1="261.278" x2="706.341" y2="105.137" gradientUnits="userSpaceOnUse">
<stop stop-color="#194AFF" stop-opacity="0"/>
<stop offset="1" stop-color="#194AFF"/>
</linearGradient>
<linearGradient id="paint3_linear_2505_32735" x1="-78.8309" y1="272.209" x2="706.341" y2="116.068" gradientUnits="userSpaceOnUse">
<stop stop-color="#194AFF" stop-opacity="0"/>
<stop offset="1" stop-color="#194AFF"/>
</linearGradient>
<linearGradient id="paint4_linear_2505_32735" x1="-78.8309" y1="279.497" x2="706.341" y2="123.356" gradientUnits="userSpaceOnUse">
<stop stop-color="#194AFF" stop-opacity="0"/>
<stop offset="1" stop-color="#194AFF"/>
</linearGradient>
<linearGradient id="paint5_linear_2505_32735" x1="-78.8309" y1="286.787" x2="706.341" y2="130.646" gradientUnits="userSpaceOnUse">
<stop stop-color="#194AFF" stop-opacity="0"/>
<stop offset="1" stop-color="#194AFF"/>
</linearGradient>
<linearGradient id="paint6_linear_2505_32735" x1="-78.8309" y1="294.075" x2="706.341" y2="137.934" gradientUnits="userSpaceOnUse">
<stop stop-color="#194AFF" stop-opacity="0"/>
<stop offset="1" stop-color="#194AFF"/>
</linearGradient>
<linearGradient id="paint7_linear_2505_32735" x1="-78.8309" y1="253.991" x2="706.341" y2="97.8494" gradientUnits="userSpaceOnUse">
<stop stop-color="#194AFF" stop-opacity="0"/>
<stop offset="1" stop-color="#194AFF"/>
</linearGradient>
<linearGradient id="paint8_linear_2505_32735" x1="-78.8309" y1="264.922" x2="706.341" y2="108.781" gradientUnits="userSpaceOnUse">
<stop stop-color="#194AFF" stop-opacity="0"/>
<stop offset="1" stop-color="#194AFF"/>
</linearGradient>
<linearGradient id="paint9_linear_2505_32735" x1="-78.8309" y1="275.853" x2="706.341" y2="119.712" gradientUnits="userSpaceOnUse">
<stop stop-color="#194AFF" stop-opacity="0"/>
<stop offset="1" stop-color="#194AFF"/>
</linearGradient>
<linearGradient id="paint10_linear_2505_32735" x1="-78.8309" y1="257.634" x2="706.341" y2="101.493" gradientUnits="userSpaceOnUse">
<stop stop-color="#194AFF" stop-opacity="0"/>
<stop offset="1" stop-color="#194AFF"/>
</linearGradient>
<linearGradient id="paint11_linear_2505_32735" x1="-78.8309" y1="268.566" x2="706.341" y2="112.424" gradientUnits="userSpaceOnUse">
<stop stop-color="#194AFF" stop-opacity="0"/>
<stop offset="1" stop-color="#194AFF"/>
</linearGradient>
<linearGradient id="paint12_linear_2505_32735" x1="-78.8309" y1="283.144" x2="706.341" y2="127.003" gradientUnits="userSpaceOnUse">
<stop stop-color="#194AFF" stop-opacity="0"/>
<stop offset="1" stop-color="#194AFF"/>
</linearGradient>
<linearGradient id="paint13_linear_2505_32735" x1="-78.8309" y1="290.431" x2="706.341" y2="134.29" gradientUnits="userSpaceOnUse">
<stop stop-color="#194AFF" stop-opacity="0"/>
<stop offset="1" stop-color="#194AFF"/>
</linearGradient>
<linearGradient id="paint14_linear_2505_32735" x1="-78.8309" y1="297.719" x2="706.341" y2="141.578" gradientUnits="userSpaceOnUse">
<stop stop-color="#194AFF" stop-opacity="0"/>
<stop offset="1" stop-color="#194AFF"/>
</linearGradient>
<linearGradient id="paint15_linear_2505_32735" x1="-78.8309" y1="301.362" x2="706.341" y2="145.221" gradientUnits="userSpaceOnUse">
<stop stop-color="#194AFF" stop-opacity="0"/>
<stop offset="1" stop-color="#194AFF"/>
</linearGradient>
<linearGradient id="paint16_linear_2505_32735" x1="-78.8309" y1="308.65" x2="706.341" y2="152.509" gradientUnits="userSpaceOnUse">
<stop stop-color="#194AFF" stop-opacity="0"/>
<stop offset="1" stop-color="#194AFF"/>
</linearGradient>
<linearGradient id="paint17_linear_2505_32735" x1="-78.8309" y1="315.941" x2="706.341" y2="159.799" gradientUnits="userSpaceOnUse">
<stop stop-color="#194AFF" stop-opacity="0"/>
<stop offset="1" stop-color="#194AFF"/>
</linearGradient>
<linearGradient id="paint18_linear_2505_32735" x1="-78.8309" y1="323.228" x2="706.341" y2="167.087" gradientUnits="userSpaceOnUse">
<stop stop-color="#194AFF" stop-opacity="0"/>
<stop offset="1" stop-color="#194AFF"/>
</linearGradient>
<linearGradient id="paint19_linear_2505_32735" x1="-78.8309" y1="330.516" x2="706.341" y2="174.374" gradientUnits="userSpaceOnUse">
<stop stop-color="#194AFF" stop-opacity="0"/>
<stop offset="1" stop-color="#194AFF"/>
</linearGradient>
<linearGradient id="paint20_linear_2505_32735" x1="-78.8309" y1="337.806" x2="706.341" y2="181.665" gradientUnits="userSpaceOnUse">
<stop stop-color="#194AFF" stop-opacity="0"/>
<stop offset="1" stop-color="#194AFF"/>
</linearGradient>
<linearGradient id="paint21_linear_2505_32735" x1="-78.8309" y1="359.669" x2="706.341" y2="203.528" gradientUnits="userSpaceOnUse">
<stop stop-color="#194AFF" stop-opacity="0"/>
<stop offset="1" stop-color="#194AFF"/>
</linearGradient>
<linearGradient id="paint22_linear_2505_32735" x1="-78.8309" y1="345.094" x2="706.341" y2="188.953" gradientUnits="userSpaceOnUse">
<stop stop-color="#194AFF" stop-opacity="0"/>
<stop offset="1" stop-color="#194AFF"/>
</linearGradient>
<linearGradient id="paint23_linear_2505_32735" x1="-78.8309" y1="374.247" x2="706.341" y2="218.106" gradientUnits="userSpaceOnUse">
<stop stop-color="#194AFF" stop-opacity="0"/>
<stop offset="1" stop-color="#194AFF"/>
</linearGradient>
<linearGradient id="paint24_linear_2505_32735" x1="-78.8309" y1="352.381" x2="706.341" y2="196.24" gradientUnits="userSpaceOnUse">
<stop stop-color="#194AFF" stop-opacity="0"/>
<stop offset="1" stop-color="#194AFF"/>
</linearGradient>
<linearGradient id="paint25_linear_2505_32735" x1="-78.8309" y1="388.822" x2="706.341" y2="232.681" gradientUnits="userSpaceOnUse">
<stop stop-color="#194AFF" stop-opacity="0"/>
<stop offset="1" stop-color="#194AFF"/>
</linearGradient>
<linearGradient id="paint26_linear_2505_32735" x1="-78.8309" y1="305.006" x2="706.341" y2="148.865" gradientUnits="userSpaceOnUse">
<stop stop-color="#194AFF" stop-opacity="0"/>
<stop offset="1" stop-color="#194AFF"/>
</linearGradient>
<linearGradient id="paint27_linear_2505_32735" x1="-78.8309" y1="312.297" x2="706.341" y2="156.156" gradientUnits="userSpaceOnUse">
<stop stop-color="#194AFF" stop-opacity="0"/>
<stop offset="1" stop-color="#194AFF"/>
</linearGradient>
<linearGradient id="paint28_linear_2505_32735" x1="-78.8309" y1="319.584" x2="706.341" y2="163.443" gradientUnits="userSpaceOnUse">
<stop stop-color="#194AFF" stop-opacity="0"/>
<stop offset="1" stop-color="#194AFF"/>
</linearGradient>
<linearGradient id="paint29_linear_2505_32735" x1="-78.8309" y1="326.872" x2="706.341" y2="170.731" gradientUnits="userSpaceOnUse">
<stop stop-color="#194AFF" stop-opacity="0"/>
<stop offset="1" stop-color="#194AFF"/>
</linearGradient>
<linearGradient id="paint30_linear_2505_32735" x1="-78.8309" y1="334.162" x2="706.341" y2="178.021" gradientUnits="userSpaceOnUse">
<stop stop-color="#194AFF" stop-opacity="0"/>
<stop offset="1" stop-color="#194AFF"/>
</linearGradient>
<linearGradient id="paint31_linear_2505_32735" x1="-78.8309" y1="356.025" x2="706.341" y2="199.884" gradientUnits="userSpaceOnUse">
<stop stop-color="#194AFF" stop-opacity="0"/>
<stop offset="1" stop-color="#194AFF"/>
</linearGradient>
<linearGradient id="paint32_linear_2505_32735" x1="-78.8309" y1="341.45" x2="706.341" y2="185.309" gradientUnits="userSpaceOnUse">
<stop stop-color="#194AFF" stop-opacity="0"/>
<stop offset="1" stop-color="#194AFF"/>
</linearGradient>
<linearGradient id="paint33_linear_2505_32735" x1="-78.8309" y1="366.959" x2="706.341" y2="210.818" gradientUnits="userSpaceOnUse">
<stop stop-color="#194AFF" stop-opacity="0"/>
<stop offset="1" stop-color="#194AFF"/>
</linearGradient>
<linearGradient id="paint34_linear_2505_32735" x1="-78.8309" y1="348.737" x2="706.341" y2="192.596" gradientUnits="userSpaceOnUse">
<stop stop-color="#194AFF" stop-opacity="0"/>
<stop offset="1" stop-color="#194AFF"/>
</linearGradient>
<linearGradient id="paint35_linear_2505_32735" x1="-78.8309" y1="381.534" x2="706.341" y2="225.393" gradientUnits="userSpaceOnUse">
<stop stop-color="#194AFF" stop-opacity="0"/>
<stop offset="1" stop-color="#194AFF"/>
</linearGradient>
<linearGradient id="paint36_linear_2505_32735" x1="-78.8309" y1="363.316" x2="706.341" y2="207.174" gradientUnits="userSpaceOnUse">
<stop stop-color="#194AFF" stop-opacity="0"/>
<stop offset="1" stop-color="#194AFF"/>
</linearGradient>
<linearGradient id="paint37_linear_2505_32735" x1="-78.8309" y1="396.112" x2="706.341" y2="239.971" gradientUnits="userSpaceOnUse">
<stop stop-color="#194AFF" stop-opacity="0"/>
<stop offset="1" stop-color="#194AFF"/>
</linearGradient>
<linearGradient id="paint38_linear_2505_32735" x1="-78.8309" y1="370.603" x2="706.341" y2="214.462" gradientUnits="userSpaceOnUse">
<stop stop-color="#194AFF" stop-opacity="0"/>
<stop offset="1" stop-color="#194AFF"/>
</linearGradient>
<linearGradient id="paint39_linear_2505_32735" x1="-78.8309" y1="403.4" x2="706.341" y2="247.259" gradientUnits="userSpaceOnUse">
<stop stop-color="#194AFF" stop-opacity="0"/>
<stop offset="1" stop-color="#194AFF"/>
</linearGradient>
<linearGradient id="paint40_linear_2505_32735" x1="-78.8309" y1="377.891" x2="706.341" y2="221.749" gradientUnits="userSpaceOnUse">
<stop stop-color="#194AFF" stop-opacity="0"/>
<stop offset="1" stop-color="#194AFF"/>
</linearGradient>
<linearGradient id="paint41_linear_2505_32735" x1="-78.8309" y1="410.687" x2="706.341" y2="254.546" gradientUnits="userSpaceOnUse">
<stop stop-color="#194AFF" stop-opacity="0"/>
<stop offset="1" stop-color="#194AFF"/>
</linearGradient>
<linearGradient id="paint42_linear_2505_32735" x1="-78.8309" y1="385.178" x2="706.341" y2="229.037" gradientUnits="userSpaceOnUse">
<stop stop-color="#194AFF" stop-opacity="0"/>
<stop offset="1" stop-color="#194AFF"/>
</linearGradient>
<linearGradient id="paint43_linear_2505_32735" x1="-78.8309" y1="417.975" x2="706.341" y2="261.834" gradientUnits="userSpaceOnUse">
<stop stop-color="#194AFF" stop-opacity="0"/>
<stop offset="1" stop-color="#194AFF"/>
</linearGradient>
<linearGradient id="paint44_linear_2505_32735" x1="-78.8309" y1="392.469" x2="706.341" y2="236.328" gradientUnits="userSpaceOnUse">
<stop stop-color="#194AFF" stop-opacity="0"/>
<stop offset="1" stop-color="#194AFF"/>
</linearGradient>
<linearGradient id="paint45_linear_2505_32735" x1="-78.8309" y1="425.266" x2="706.341" y2="269.124" gradientUnits="userSpaceOnUse">
<stop stop-color="#194AFF" stop-opacity="0"/>
<stop offset="1" stop-color="#194AFF"/>
</linearGradient>
<linearGradient id="paint46_linear_2505_32735" x1="-78.8309" y1="399.756" x2="706.341" y2="243.615" gradientUnits="userSpaceOnUse">
<stop stop-color="#194AFF" stop-opacity="0"/>
<stop offset="1" stop-color="#194AFF"/>
</linearGradient>
<linearGradient id="paint47_linear_2505_32735" x1="-78.8309" y1="432.553" x2="706.341" y2="276.412" gradientUnits="userSpaceOnUse">
<stop stop-color="#194AFF" stop-opacity="0"/>
<stop offset="1" stop-color="#194AFF"/>
</linearGradient>
<linearGradient id="paint48_linear_2505_32735" x1="-78.8309" y1="407.044" x2="706.341" y2="250.903" gradientUnits="userSpaceOnUse">
<stop stop-color="#194AFF" stop-opacity="0"/>
<stop offset="1" stop-color="#194AFF"/>
</linearGradient>
<linearGradient id="paint49_linear_2505_32735" x1="-78.8309" y1="439.84" x2="706.341" y2="283.699" gradientUnits="userSpaceOnUse">
<stop stop-color="#194AFF" stop-opacity="0"/>
<stop offset="1" stop-color="#194AFF"/>
</linearGradient>
<linearGradient id="paint50_linear_2505_32735" x1="-78.8309" y1="414.331" x2="706.341" y2="258.19" gradientUnits="userSpaceOnUse">
<stop stop-color="#194AFF" stop-opacity="0"/>
<stop offset="1" stop-color="#194AFF"/>
</linearGradient>
<linearGradient id="paint51_linear_2505_32735" x1="-78.8309" y1="447.128" x2="706.341" y2="290.987" gradientUnits="userSpaceOnUse">
<stop stop-color="#194AFF" stop-opacity="0"/>
<stop offset="1" stop-color="#194AFF"/>
</linearGradient>
<linearGradient id="paint52_linear_2505_32735" x1="-78.8309" y1="421.622" x2="706.341" y2="265.481" gradientUnits="userSpaceOnUse">
<stop stop-color="#194AFF" stop-opacity="0"/>
<stop offset="1" stop-color="#194AFF"/>
</linearGradient>
<linearGradient id="paint53_linear_2505_32735" x1="-78.8309" y1="454.419" x2="706.341" y2="298.278" gradientUnits="userSpaceOnUse">
<stop stop-color="#194AFF" stop-opacity="0"/>
<stop offset="1" stop-color="#194AFF"/>
</linearGradient>
<linearGradient id="paint54_linear_2505_32735" x1="-78.8309" y1="428.909" x2="706.341" y2="272.768" gradientUnits="userSpaceOnUse">
<stop stop-color="#194AFF" stop-opacity="0"/>
<stop offset="1" stop-color="#194AFF"/>
</linearGradient>
<linearGradient id="paint55_linear_2505_32735" x1="-78.8309" y1="461.706" x2="706.341" y2="305.565" gradientUnits="userSpaceOnUse">
<stop stop-color="#194AFF" stop-opacity="0"/>
<stop offset="1" stop-color="#194AFF"/>
</linearGradient>
<linearGradient id="paint56_linear_2505_32735" x1="-78.8309" y1="436.197" x2="706.341" y2="280.056" gradientUnits="userSpaceOnUse">
<stop stop-color="#194AFF" stop-opacity="0"/>
<stop offset="1" stop-color="#194AFF"/>
</linearGradient>
<linearGradient id="paint57_linear_2505_32735" x1="-78.8309" y1="468.994" x2="706.341" y2="312.853" gradientUnits="userSpaceOnUse">
<stop stop-color="#194AFF" stop-opacity="0"/>
<stop offset="1" stop-color="#194AFF"/>
</linearGradient>
<linearGradient id="paint58_linear_2505_32735" x1="-78.8309" y1="443.484" x2="706.341" y2="287.343" gradientUnits="userSpaceOnUse">
<stop stop-color="#194AFF" stop-opacity="0"/>
<stop offset="1" stop-color="#194AFF"/>
</linearGradient>
<linearGradient id="paint59_linear_2505_32735" x1="-78.8309" y1="476.281" x2="706.341" y2="320.14" gradientUnits="userSpaceOnUse">
<stop stop-color="#194AFF" stop-opacity="0"/>
<stop offset="1" stop-color="#194AFF"/>
</linearGradient>
<linearGradient id="paint60_linear_2505_32735" x1="-78.8309" y1="450.775" x2="706.341" y2="294.634" gradientUnits="userSpaceOnUse">
<stop stop-color="#194AFF" stop-opacity="0"/>
<stop offset="1" stop-color="#194AFF"/>
</linearGradient>
<linearGradient id="paint61_linear_2505_32735" x1="-78.8309" y1="458.062" x2="706.341" y2="301.921" gradientUnits="userSpaceOnUse">
<stop stop-color="#194AFF" stop-opacity="0"/>
<stop offset="1" stop-color="#194AFF"/>
</linearGradient>
<linearGradient id="paint62_linear_2505_32735" x1="-78.8309" y1="465.35" x2="706.341" y2="309.209" gradientUnits="userSpaceOnUse">
<stop stop-color="#194AFF" stop-opacity="0"/>
<stop offset="1" stop-color="#194AFF"/>
</linearGradient>
<linearGradient id="paint63_linear_2505_32735" x1="-78.8309" y1="472.637" x2="706.341" y2="316.496" gradientUnits="userSpaceOnUse">
<stop stop-color="#194AFF" stop-opacity="0"/>
<stop offset="1" stop-color="#194AFF"/>
</linearGradient>
<linearGradient id="paint64_linear_2505_32735" x1="-78.8309" y1="479.928" x2="706.341" y2="323.787" gradientUnits="userSpaceOnUse">
<stop stop-color="#194AFF" stop-opacity="0"/>
<stop offset="1" stop-color="#194AFF"/>
</linearGradient>
<linearGradient id="paint65_linear_2505_32735" x1="-78.8309" y1="483.572" x2="706.341" y2="327.431" gradientUnits="userSpaceOnUse">
<stop stop-color="#194AFF" stop-opacity="0"/>
<stop offset="1" stop-color="#194AFF"/>
</linearGradient>
<linearGradient id="paint66_linear_2505_32735" x1="-78.8309" y1="487.215" x2="706.341" y2="331.074" gradientUnits="userSpaceOnUse">
<stop stop-color="#194AFF" stop-opacity="0"/>
<stop offset="1" stop-color="#194AFF"/>
</linearGradient>
<linearGradient id="paint67_linear_2505_32735" x1="-78.8309" y1="239.412" x2="706.341" y2="83.2713" gradientUnits="userSpaceOnUse">
<stop stop-color="#194AFF" stop-opacity="0"/>
<stop offset="1" stop-color="#194AFF"/>
</linearGradient>
<linearGradient id="paint68_linear_2505_32735" x1="-78.8309" y1="250.344" x2="706.341" y2="94.2026" gradientUnits="userSpaceOnUse">
<stop stop-color="#194AFF" stop-opacity="0"/>
<stop offset="1" stop-color="#194AFF"/>
</linearGradient>
<linearGradient id="paint69_linear_2505_32735" x1="-78.8309" y1="243.056" x2="706.341" y2="86.915" gradientUnits="userSpaceOnUse">
<stop stop-color="#194AFF" stop-opacity="0"/>
<stop offset="1" stop-color="#194AFF"/>
</linearGradient>
<linearGradient id="paint70_linear_2505_32735" x1="-78.8309" y1="246.7" x2="706.341" y2="90.5588" gradientUnits="userSpaceOnUse">
<stop stop-color="#194AFF" stop-opacity="0"/>
<stop offset="1" stop-color="#194AFF"/>
</linearGradient>
<linearGradient id="paint71_linear_2505_32735" x1="718.869" y1="67.9106" x2="-66.3026" y2="224.052" gradientUnits="userSpaceOnUse">
<stop stop-color="#194AFF" stop-opacity="0"/>
<stop offset="1" stop-color="#194AFF"/>
</linearGradient>
<linearGradient id="paint72_linear_2505_32735" x1="718.869" y1="56.9794" x2="-66.3026" y2="213.12" gradientUnits="userSpaceOnUse">
<stop stop-color="#194AFF" stop-opacity="0"/>
<stop offset="1" stop-color="#194AFF"/>
</linearGradient>
<linearGradient id="paint73_linear_2505_32735" x1="718.869" y1="49.6919" x2="-66.3026" y2="205.833" gradientUnits="userSpaceOnUse">
<stop stop-color="#194AFF" stop-opacity="0"/>
<stop offset="1" stop-color="#194AFF"/>
</linearGradient>
<linearGradient id="paint74_linear_2505_32735" x1="718.869" y1="42.4013" x2="-66.3026" y2="198.542" gradientUnits="userSpaceOnUse">
<stop stop-color="#194AFF" stop-opacity="0"/>
<stop offset="1" stop-color="#194AFF"/>
</linearGradient>
<linearGradient id="paint75_linear_2505_32735" x1="718.869" y1="35.1137" x2="-66.3026" y2="191.255" gradientUnits="userSpaceOnUse">
<stop stop-color="#194AFF" stop-opacity="0"/>
<stop offset="1" stop-color="#194AFF"/>
</linearGradient>
<linearGradient id="paint76_linear_2505_32735" x1="718.869" y1="75.1981" x2="-66.3026" y2="231.339" gradientUnits="userSpaceOnUse">
<stop stop-color="#194AFF" stop-opacity="0"/>
<stop offset="1" stop-color="#194AFF"/>
</linearGradient>
<linearGradient id="paint77_linear_2505_32735" x1="718.869" y1="64.2669" x2="-66.3026" y2="220.408" gradientUnits="userSpaceOnUse">
<stop stop-color="#194AFF" stop-opacity="0"/>
<stop offset="1" stop-color="#194AFF"/>
</linearGradient>
<linearGradient id="paint78_linear_2505_32735" x1="718.869" y1="53.3356" x2="-66.3026" y2="209.477" gradientUnits="userSpaceOnUse">
<stop stop-color="#194AFF" stop-opacity="0"/>
<stop offset="1" stop-color="#194AFF"/>
</linearGradient>
<linearGradient id="paint79_linear_2505_32735" x1="718.869" y1="71.5544" x2="-66.3026" y2="227.695" gradientUnits="userSpaceOnUse">
<stop stop-color="#194AFF" stop-opacity="0"/>
<stop offset="1" stop-color="#194AFF"/>
</linearGradient>
<linearGradient id="paint80_linear_2505_32735" x1="718.869" y1="60.6231" x2="-66.3026" y2="216.764" gradientUnits="userSpaceOnUse">
<stop stop-color="#194AFF" stop-opacity="0"/>
<stop offset="1" stop-color="#194AFF"/>
</linearGradient>
<linearGradient id="paint81_linear_2505_32735" x1="718.869" y1="46.045" x2="-66.3026" y2="202.186" gradientUnits="userSpaceOnUse">
<stop stop-color="#194AFF" stop-opacity="0"/>
<stop offset="1" stop-color="#194AFF"/>
</linearGradient>
<linearGradient id="paint82_linear_2505_32735" x1="718.869" y1="38.7575" x2="-66.3026" y2="194.899" gradientUnits="userSpaceOnUse">
<stop stop-color="#194AFF" stop-opacity="0"/>
<stop offset="1" stop-color="#194AFF"/>
</linearGradient>
<linearGradient id="paint83_linear_2505_32735" x1="718.869" y1="31.47" x2="-66.3026" y2="187.611" gradientUnits="userSpaceOnUse">
<stop stop-color="#194AFF" stop-opacity="0"/>
<stop offset="1" stop-color="#194AFF"/>
</linearGradient>
<linearGradient id="paint84_linear_2505_32735" x1="718.869" y1="27.8263" x2="-66.3026" y2="183.967" gradientUnits="userSpaceOnUse">
<stop stop-color="#194AFF" stop-opacity="0"/>
<stop offset="1" stop-color="#194AFF"/>
</linearGradient>
<linearGradient id="paint85_linear_2505_32735" x1="718.869" y1="20.5387" x2="-66.3026" y2="176.68" gradientUnits="userSpaceOnUse">
<stop stop-color="#194AFF" stop-opacity="0"/>
<stop offset="1" stop-color="#194AFF"/>
</linearGradient>
<linearGradient id="paint86_linear_2505_32735" x1="718.869" y1="13.2481" x2="-66.3026" y2="169.389" gradientUnits="userSpaceOnUse">
<stop stop-color="#194AFF" stop-opacity="0"/>
<stop offset="1" stop-color="#194AFF"/>
</linearGradient>
<linearGradient id="paint87_linear_2505_32735" x1="718.869" y1="5.96062" x2="-66.3026" y2="162.102" gradientUnits="userSpaceOnUse">
<stop stop-color="#194AFF" stop-opacity="0"/>
<stop offset="1" stop-color="#194AFF"/>
</linearGradient>
<linearGradient id="paint88_linear_2505_32735" x1="718.869" y1="-1.32688" x2="-66.3026" y2="154.814" gradientUnits="userSpaceOnUse">
<stop stop-color="#194AFF" stop-opacity="0"/>
<stop offset="1" stop-color="#194AFF"/>
</linearGradient>
<linearGradient id="paint89_linear_2505_32735" x1="718.869" y1="-8.6175" x2="-66.3026" y2="147.524" gradientUnits="userSpaceOnUse">
<stop stop-color="#194AFF" stop-opacity="0"/>
<stop offset="1" stop-color="#194AFF"/>
</linearGradient>
<linearGradient id="paint90_linear_2505_32735" x1="718.869" y1="-30.48" x2="-66.3026" y2="125.661" gradientUnits="userSpaceOnUse">
<stop stop-color="#194AFF" stop-opacity="0"/>
<stop offset="1" stop-color="#194AFF"/>
</linearGradient>
<linearGradient id="paint91_linear_2505_32735" x1="718.869" y1="-15.905" x2="-66.3026" y2="140.236" gradientUnits="userSpaceOnUse">
<stop stop-color="#194AFF" stop-opacity="0"/>
<stop offset="1" stop-color="#194AFF"/>
</linearGradient>
<linearGradient id="paint92_linear_2505_32735" x1="718.869" y1="-45.0581" x2="-66.3026" y2="111.083" gradientUnits="userSpaceOnUse">
<stop stop-color="#194AFF" stop-opacity="0"/>
<stop offset="1" stop-color="#194AFF"/>
</linearGradient>
<linearGradient id="paint93_linear_2505_32735" x1="718.869" y1="-23.1925" x2="-66.3026" y2="132.949" gradientUnits="userSpaceOnUse">
<stop stop-color="#194AFF" stop-opacity="0"/>
<stop offset="1" stop-color="#194AFF"/>
</linearGradient>
<linearGradient id="paint94_linear_2505_32735" x1="718.869" y1="-59.6331" x2="-66.3026" y2="96.508" gradientUnits="userSpaceOnUse">
<stop stop-color="#194AFF" stop-opacity="0"/>
<stop offset="1" stop-color="#194AFF"/>
</linearGradient>
<linearGradient id="paint95_linear_2505_32735" x1="718.869" y1="24.1825" x2="-66.3026" y2="180.324" gradientUnits="userSpaceOnUse">
<stop stop-color="#194AFF" stop-opacity="0"/>
<stop offset="1" stop-color="#194AFF"/>
</linearGradient>
<linearGradient id="paint96_linear_2505_32735" x1="718.869" y1="16.8919" x2="-66.3026" y2="173.033" gradientUnits="userSpaceOnUse">
<stop stop-color="#194AFF" stop-opacity="0"/>
<stop offset="1" stop-color="#194AFF"/>
</linearGradient>
<linearGradient id="paint97_linear_2505_32735" x1="718.869" y1="9.60438" x2="-66.3026" y2="165.745" gradientUnits="userSpaceOnUse">
<stop stop-color="#194AFF" stop-opacity="0"/>
<stop offset="1" stop-color="#194AFF"/>
</linearGradient>
<linearGradient id="paint98_linear_2505_32735" x1="718.869" y1="2.31687" x2="-66.3026" y2="158.458" gradientUnits="userSpaceOnUse">
<stop stop-color="#194AFF" stop-opacity="0"/>
<stop offset="1" stop-color="#194AFF"/>
</linearGradient>
<linearGradient id="paint99_linear_2505_32735" x1="718.869" y1="-4.97375" x2="-66.3026" y2="151.167" gradientUnits="userSpaceOnUse">
<stop stop-color="#194AFF" stop-opacity="0"/>
<stop offset="1" stop-color="#194AFF"/>
</linearGradient>
<linearGradient id="paint100_linear_2505_32735" x1="718.869" y1="-26.8363" x2="-66.3026" y2="129.305" gradientUnits="userSpaceOnUse">
<stop stop-color="#194AFF" stop-opacity="0"/>
<stop offset="1" stop-color="#194AFF"/>
</linearGradient>
<linearGradient id="paint101_linear_2505_32735" x1="718.869" y1="-12.2612" x2="-66.3026" y2="143.88" gradientUnits="userSpaceOnUse">
<stop stop-color="#194AFF" stop-opacity="0"/>
<stop offset="1" stop-color="#194AFF"/>
</linearGradient>
<linearGradient id="paint102_linear_2505_32735" x1="718.869" y1="-37.7706" x2="-66.3026" y2="118.37" gradientUnits="userSpaceOnUse">
<stop stop-color="#194AFF" stop-opacity="0"/>
<stop offset="1" stop-color="#194AFF"/>
</linearGradient>
<linearGradient id="paint103_linear_2505_32735" x1="718.869" y1="-19.5487" x2="-66.3026" y2="136.592" gradientUnits="userSpaceOnUse">
<stop stop-color="#194AFF" stop-opacity="0"/>
<stop offset="1" stop-color="#194AFF"/>
</linearGradient>
<linearGradient id="paint104_linear_2505_32735" x1="718.869" y1="-52.3456" x2="-66.3026" y2="103.795" gradientUnits="userSpaceOnUse">
<stop stop-color="#194AFF" stop-opacity="0"/>
<stop offset="1" stop-color="#194AFF"/>
</linearGradient>
<linearGradient id="paint105_linear_2505_32735" x1="718.869" y1="-34.1269" x2="-66.3026" y2="122.014" gradientUnits="userSpaceOnUse">
<stop stop-color="#194AFF" stop-opacity="0"/>
<stop offset="1" stop-color="#194AFF"/>
</linearGradient>
<linearGradient id="paint106_linear_2505_32735" x1="718.869" y1="-66.9237" x2="-66.3026" y2="89.2173" gradientUnits="userSpaceOnUse">
<stop stop-color="#194AFF" stop-opacity="0"/>
<stop offset="1" stop-color="#194AFF"/>
</linearGradient>
<linearGradient id="paint107_linear_2505_32735" x1="718.869" y1="-41.4144" x2="-66.3026" y2="114.727" gradientUnits="userSpaceOnUse">
<stop stop-color="#194AFF" stop-opacity="0"/>
<stop offset="1" stop-color="#194AFF"/>
</linearGradient>
<linearGradient id="paint108_linear_2505_32735" x1="718.869" y1="-74.2113" x2="-66.3026" y2="81.9298" gradientUnits="userSpaceOnUse">
<stop stop-color="#194AFF" stop-opacity="0"/>
<stop offset="1" stop-color="#194AFF"/>
</linearGradient>
<linearGradient id="paint109_linear_2505_32735" x1="718.869" y1="-48.7019" x2="-66.3026" y2="107.439" gradientUnits="userSpaceOnUse">
<stop stop-color="#194AFF" stop-opacity="0"/>
<stop offset="1" stop-color="#194AFF"/>
</linearGradient>
<linearGradient id="paint110_linear_2505_32735" x1="718.869" y1="-81.4988" x2="-66.3026" y2="74.6423" gradientUnits="userSpaceOnUse">
<stop stop-color="#194AFF" stop-opacity="0"/>
<stop offset="1" stop-color="#194AFF"/>
</linearGradient>
<linearGradient id="paint111_linear_2505_32735" x1="718.869" y1="-55.9894" x2="-66.3026" y2="100.152" gradientUnits="userSpaceOnUse">
<stop stop-color="#194AFF" stop-opacity="0"/>
<stop offset="1" stop-color="#194AFF"/>
</linearGradient>
<linearGradient id="paint112_linear_2505_32735" x1="718.869" y1="-88.7863" x2="-66.3026" y2="67.3548" gradientUnits="userSpaceOnUse">
<stop stop-color="#194AFF" stop-opacity="0"/>
<stop offset="1" stop-color="#194AFF"/>
</linearGradient>
<linearGradient id="paint113_linear_2505_32735" x1="718.869" y1="-63.28" x2="-66.3026" y2="92.8611" gradientUnits="userSpaceOnUse">
<stop stop-color="#194AFF" stop-opacity="0"/>
<stop offset="1" stop-color="#194AFF"/>
</linearGradient>
<linearGradient id="paint114_linear_2505_32735" x1="718.869" y1="-96.0769" x2="-66.3026" y2="60.0642" gradientUnits="userSpaceOnUse">
<stop stop-color="#194AFF" stop-opacity="0"/>
<stop offset="1" stop-color="#194AFF"/>
</linearGradient>
<linearGradient id="paint115_linear_2505_32735" x1="718.869" y1="-70.5675" x2="-66.3026" y2="85.5736" gradientUnits="userSpaceOnUse">
<stop stop-color="#194AFF" stop-opacity="0"/>
<stop offset="1" stop-color="#194AFF"/>
</linearGradient>
<linearGradient id="paint116_linear_2505_32735" x1="718.869" y1="-103.364" x2="-66.3026" y2="52.7767" gradientUnits="userSpaceOnUse">
<stop stop-color="#194AFF" stop-opacity="0"/>
<stop offset="1" stop-color="#194AFF"/>
</linearGradient>
<linearGradient id="paint117_linear_2505_32735" x1="718.869" y1="-77.855" x2="-66.3026" y2="78.2861" gradientUnits="userSpaceOnUse">
<stop stop-color="#194AFF" stop-opacity="0"/>
<stop offset="1" stop-color="#194AFF"/>
</linearGradient>
<linearGradient id="paint118_linear_2505_32735" x1="718.869" y1="-110.652" x2="-66.3026" y2="45.4892" gradientUnits="userSpaceOnUse">
<stop stop-color="#194AFF" stop-opacity="0"/>
<stop offset="1" stop-color="#194AFF"/>
</linearGradient>
<linearGradient id="paint119_linear_2505_32735" x1="718.869" y1="-85.1425" x2="-66.3026" y2="70.9986" gradientUnits="userSpaceOnUse">
<stop stop-color="#194AFF" stop-opacity="0"/>
<stop offset="1" stop-color="#194AFF"/>
</linearGradient>
<linearGradient id="paint120_linear_2505_32735" x1="718.869" y1="-117.939" x2="-66.3026" y2="38.2017" gradientUnits="userSpaceOnUse">
<stop stop-color="#194AFF" stop-opacity="0"/>
<stop offset="1" stop-color="#194AFF"/>
</linearGradient>
<linearGradient id="paint121_linear_2505_32735" x1="718.869" y1="-92.4331" x2="-66.3026" y2="63.7079" gradientUnits="userSpaceOnUse">
<stop stop-color="#194AFF" stop-opacity="0"/>
<stop offset="1" stop-color="#194AFF"/>
</linearGradient>
<linearGradient id="paint122_linear_2505_32735" x1="718.869" y1="-125.23" x2="-66.3026" y2="30.9111" gradientUnits="userSpaceOnUse">
<stop stop-color="#194AFF" stop-opacity="0"/>
<stop offset="1" stop-color="#194AFF"/>
</linearGradient>
<linearGradient id="paint123_linear_2505_32735" x1="718.869" y1="-99.7206" x2="-66.3026" y2="56.4205" gradientUnits="userSpaceOnUse">
<stop stop-color="#194AFF" stop-opacity="0"/>
<stop offset="1" stop-color="#194AFF"/>
</linearGradient>
<linearGradient id="paint124_linear_2505_32735" x1="718.869" y1="-132.517" x2="-66.3026" y2="23.6236" gradientUnits="userSpaceOnUse">
<stop stop-color="#194AFF" stop-opacity="0"/>
<stop offset="1" stop-color="#194AFF"/>
</linearGradient>
<linearGradient id="paint125_linear_2505_32735" x1="718.869" y1="-107.008" x2="-66.3026" y2="49.133" gradientUnits="userSpaceOnUse">
<stop stop-color="#194AFF" stop-opacity="0"/>
<stop offset="1" stop-color="#194AFF"/>
</linearGradient>
<linearGradient id="paint126_linear_2505_32735" x1="718.869" y1="-139.805" x2="-66.3026" y2="16.3361" gradientUnits="userSpaceOnUse">
<stop stop-color="#194AFF" stop-opacity="0"/>
<stop offset="1" stop-color="#194AFF"/>
</linearGradient>
<linearGradient id="paint127_linear_2505_32735" x1="718.869" y1="-114.296" x2="-66.3026" y2="41.8454" gradientUnits="userSpaceOnUse">
<stop stop-color="#194AFF" stop-opacity="0"/>
<stop offset="1" stop-color="#194AFF"/>
</linearGradient>
<linearGradient id="paint128_linear_2505_32735" x1="718.869" y1="-147.093" x2="-66.3026" y2="9.04857" gradientUnits="userSpaceOnUse">
<stop stop-color="#194AFF" stop-opacity="0"/>
<stop offset="1" stop-color="#194AFF"/>
</linearGradient>
<linearGradient id="paint129_linear_2505_32735" x1="718.869" y1="-121.586" x2="-66.3026" y2="34.5548" gradientUnits="userSpaceOnUse">
<stop stop-color="#194AFF" stop-opacity="0"/>
<stop offset="1" stop-color="#194AFF"/>
</linearGradient>
<linearGradient id="paint130_linear_2505_32735" x1="718.869" y1="-128.874" x2="-66.3026" y2="27.2673" gradientUnits="userSpaceOnUse">
<stop stop-color="#194AFF" stop-opacity="0"/>
<stop offset="1" stop-color="#194AFF"/>
</linearGradient>
<linearGradient id="paint131_linear_2505_32735" x1="718.869" y1="-136.161" x2="-66.3026" y2="19.9798" gradientUnits="userSpaceOnUse">
<stop stop-color="#194AFF" stop-opacity="0"/>
<stop offset="1" stop-color="#194AFF"/>
</linearGradient>
<linearGradient id="paint132_linear_2505_32735" x1="718.869" y1="-143.449" x2="-66.3026" y2="12.6923" gradientUnits="userSpaceOnUse">
<stop stop-color="#194AFF" stop-opacity="0"/>
<stop offset="1" stop-color="#194AFF"/>
</linearGradient>
<linearGradient id="paint133_linear_2505_32735" x1="718.869" y1="-150.739" x2="-66.3026" y2="5.40169" gradientUnits="userSpaceOnUse">
<stop stop-color="#194AFF" stop-opacity="0"/>
<stop offset="1" stop-color="#194AFF"/>
</linearGradient>
<linearGradient id="paint134_linear_2505_32735" x1="718.869" y1="89.7763" x2="-66.3026" y2="245.917" gradientUnits="userSpaceOnUse">
<stop stop-color="#194AFF" stop-opacity="0"/>
<stop offset="1" stop-color="#194AFF"/>
</linearGradient>
<linearGradient id="paint135_linear_2505_32735" x1="718.869" y1="78.845" x2="-66.3026" y2="234.986" gradientUnits="userSpaceOnUse">
<stop stop-color="#194AFF" stop-opacity="0"/>
<stop offset="1" stop-color="#194AFF"/>
</linearGradient>
<linearGradient id="paint136_linear_2505_32735" x1="718.869" y1="86.1325" x2="-66.3026" y2="242.274" gradientUnits="userSpaceOnUse">
<stop stop-color="#194AFF" stop-opacity="0"/>
<stop offset="1" stop-color="#194AFF"/>
</linearGradient>
<linearGradient id="paint137_linear_2505_32735" x1="718.869" y1="82.4887" x2="-66.3026" y2="238.63" gradientUnits="userSpaceOnUse">
<stop stop-color="#194AFF" stop-opacity="0"/>
<stop offset="1" stop-color="#194AFF"/>
</linearGradient>
<clipPath id="clip0_2505_32735">
<rect width="640" height="336" fill="white"/>
</clipPath>
<clipPath id="clip1_2505_32735">
<rect width="640" height="336" fill="white"/>
</clipPath>
</defs>
</svg>
